<svg width="224" height="44" viewBox="0 0 224 44" fill="none" xmlns="http://www.w3.org/2000/svg">
<path d="M219.993 0.583984V9.71484L201.431 9.71484C200.346 9.71486 199.625 9.98557 199.171 10.4395C198.717 10.8934 198.446 11.6149 198.446 12.6992V13.8613C198.446 14.9456 198.717 15.6672 199.171 16.1211C199.625 16.5749 200.346 16.8457 201.431 16.8457H211.885C215.745 16.8457 218.689 17.751 220.602 19.6641C222.514 21.5771 223.419 24.5196 223.419 28.3799V31.2842C223.419 35.1449 222.515 38.0879 220.602 40.001C218.689 41.914 215.745 42.8193 211.885 42.8193C209.904 42.8193 207.807 42.7798 205.595 42.7021H205.591L200.247 42.4697H200.245C196.29 42.2758 192.199 42.0042 187.974 41.6553L187.515 41.6182V32.7891L188.042 32.8174C198.652 33.3982 205.822 33.6885 209.562 33.6885C210.355 33.6885 210.911 33.4664 211.299 33.0791C211.732 32.646 211.966 32.0651 211.966 31.2842V26.5576H199.107C194.983 26.5576 191.865 25.6358 189.872 23.6846L189.864 23.6777C187.913 21.6849 186.992 18.5663 186.992 14.4414V12.6992C186.992 8.57587 187.913 5.47404 189.868 3.51855C191.861 1.52599 194.98 0.584019 199.107 0.583984L219.993 0.583984Z" fill="#454A6A" stroke="#454A6A"/>
<path d="M160.795 0.583984L160.917 0.907227L176.308 41.5615L176.563 42.2383H164.163L164.044 41.9072L161.55 34.9785H147.733L145.239 41.9072L145.12 42.2383H132.72L132.976 41.5615L148.366 0.907227L148.488 0.583984H160.795ZM150.693 26.4287H158.59L154.642 14.832L150.693 26.4287Z" fill="#454A6A" stroke="#454A6A"/>
<path d="M105.141 0.583984V33.1074H126.339V42.2383H93.6865V0.583984H105.141Z" fill="#454A6A" stroke="#454A6A"/>
<path d="M82.5605 0.5V9.63086H70.3643V42.1543H58.9102V9.63086H46.7139V0.5H82.5605Z" fill="#454A6A" stroke="#454A6A"/>
<path d="M28.7998 0.583984L28.9219 0.907227L44.3125 41.5615L44.5684 42.2383H32.168L32.0488 41.9072L29.5547 34.9785H15.7383L13.2441 41.9072L13.125 42.2383H0.724609L0.980469 41.5615L16.3711 0.907227L16.4932 0.583984H28.7998ZM18.6982 26.4287H26.5947L22.6465 14.832L18.6982 26.4287Z" fill="#454A6A" stroke="#454A6A"/>
</svg>
