<svg width="392" height="75" viewBox="0 0 392 75" fill="none" xmlns="http://www.w3.org/2000/svg">
<path d="M385.194 0.647705V15.9387L352.947 15.9387C350.982 15.9387 349.6 16.4295 348.707 17.3235C347.813 18.2174 347.322 19.5993 347.322 21.5637V23.6047C347.322 25.5691 347.813 26.951 348.707 27.845C349.6 28.7389 350.982 29.2297 352.947 29.2297H371.321C378.056 29.2297 383.111 30.8094 386.374 34.0715C389.636 37.334 391.216 42.3897 391.216 49.1252V54.2288C391.216 60.9643 389.636 66.019 386.374 69.2815C383.111 72.5439 378.056 74.1243 371.321 74.1243C367.844 74.1243 364.163 74.0555 360.279 73.9192H360.275L350.883 73.511H350.88C343.933 73.1704 336.748 72.6932 329.326 72.0803L328.867 72.0432V57.2737L329.394 57.302C348.042 58.3229 360.652 58.8332 367.238 58.8333C368.705 58.8333 369.79 58.4211 370.559 57.6526C371.403 56.8088 371.842 55.6845 371.842 54.2288V45.5422H348.864C341.659 45.5422 336.297 43.9309 332.896 40.6008L332.888 40.594C329.558 37.1932 327.948 31.8311 327.948 24.6262V21.5637C327.948 14.3599 329.558 9.02784 332.892 5.6936C336.293 2.29312 341.657 0.647705 348.864 0.647705L385.194 0.647705Z" fill="#454A6A" stroke="#454A6A"/>
<path d="M281.26 0.647705L281.382 0.970947L308.433 72.426L308.69 73.1028H287.708L287.589 72.7727L283.116 60.343H258.298L253.824 72.7727L253.705 73.1028H232.724L232.98 72.426L260.031 0.970947L260.154 0.647705H281.26ZM263.238 46.0725H278.175L270.707 24.136L263.238 46.0725Z" fill="#454A6A" stroke="#454A6A"/>
<path d="M183.322 0.647705V57.8118H220.581V73.1028H163.948V0.647705H183.322Z" fill="#454A6A" stroke="#454A6A"/>
<path d="M143.635 0.5V15.791H122.198V72.9551H102.824V15.791H81.3877V0.5H143.635Z" fill="#454A6A" stroke="#454A6A"/>
<path d="M49.2603 0.647705L49.3823 0.970947L76.4331 72.426L76.6899 73.1028H55.7085L55.5894 72.7727L51.1157 60.343H26.2983L21.8237 72.7727L21.7046 73.1028H0.724121L0.97998 72.426L28.0308 0.970947L28.1538 0.647705H49.2603ZM31.2378 46.0725H46.1753L38.7065 24.136L31.2378 46.0725Z" fill="#454A6A" stroke="#454A6A"/>
</svg>
