<svg width="22" height="22" viewBox="0 0 22 22" fill="none" xmlns="http://www.w3.org/2000/svg">
<path d="M2.75 6.73333V3.35C2.75 3.01863 3.01863 2.75 3.35 2.75H8.56667C8.89804 2.75 9.16667 3.01863 9.16667 3.35V6.73333C9.16667 7.0647 8.89804 7.33333 8.56667 7.33333H3.35C3.01863 7.33333 2.75 7.0647 2.75 6.73333Z" stroke="#2C2C2C" stroke-width="1.5"/>
<path d="M12.833 18.65V15.2666C12.833 14.9353 13.1016 14.6666 13.433 14.6666H18.6497C18.981 14.6666 19.2497 14.9353 19.2497 15.2666V18.65C19.2497 18.9813 18.981 19.25 18.6497 19.25H13.433C13.1016 19.25 12.833 18.9813 12.833 18.65Z" stroke="#2C2C2C" stroke-width="1.5"/>
<path d="M12.833 11.3167V3.35C12.833 3.01863 13.1016 2.75 13.433 2.75H18.6497C18.981 2.75 19.2497 3.01863 19.2497 3.35V11.3167C19.2497 11.648 18.981 11.9167 18.6497 11.9167H13.433C13.1016 11.9167 12.833 11.648 12.833 11.3167Z" stroke="#2C2C2C" stroke-width="1.5"/>
<path d="M2.75 18.65V10.6834C2.75 10.352 3.01863 10.0834 3.35 10.0834H8.56667C8.89804 10.0834 9.16667 10.352 9.16667 10.6834V18.65C9.16667 18.9814 8.89804 19.25 8.56667 19.25H3.35C3.01863 19.25 2.75 18.9814 2.75 18.65Z" stroke="#2C2C2C" stroke-width="1.5"/>
</svg>
