<svg width="25" height="25" viewBox="0 0 25 25" fill="none" xmlns="http://www.w3.org/2000/svg">
<path d="M9.375 21.875H7.125C4.91586 21.875 3.125 20.0841 3.125 17.875V11.0599C3.125 9.66114 3.85561 8.36402 5.05179 7.63906L10.4268 4.38149C11.7011 3.60921 13.2989 3.60921 14.5732 4.38149L19.9482 7.63906C21.1444 8.36402 21.875 9.66114 21.875 11.0599V17.875C21.875 20.0841 20.0841 21.875 17.875 21.875H15.625M9.375 21.875V17.7083C9.375 15.9824 10.7741 14.5833 12.5 14.5833C14.2259 14.5833 15.625 15.9824 15.625 17.7083V21.875M9.375 21.875H15.625" stroke="#2C2C2C" stroke-width="1.5" stroke-linecap="round" stroke-linejoin="round"/>
</svg>
