<svg width="34" height="34" viewBox="0 0 34 34" fill="none" xmlns="http://www.w3.org/2000/svg">
<circle cx="17" cy="17" r="17" fill="#84879C"/>
<path d="M17.0007 17C19.0257 17 20.6673 15.3584 20.6673 13.3333C20.6673 11.3083 19.0257 9.66667 17.0007 9.66667C14.9756 9.66667 13.334 11.3083 13.334 13.3333C13.334 15.3584 14.9756 17 17.0007 17Z" stroke="white" stroke-width="1.5" stroke-linecap="round" stroke-linejoin="round"/>
<path d="M10.584 24.3333V23.4167C10.584 19.8728 13.4568 17 17.0007 17C17.9848 17 18.9172 17.2215 19.7507 17.6175" stroke="white" stroke-width="1.5" stroke-linecap="round" stroke-linejoin="round"/>
<path d="M25.25 26.1667L26.1667 20.6667L22.9583 22.3167L21.5833 20.6667L20.2083 22.3167L17 20.6667L17.9167 26.1667H25.25Z" stroke="white" stroke-width="1.5" stroke-linecap="round" stroke-linejoin="round"/>
</svg>
