<svg width="589" height="714" viewBox="0 0 589 714" fill="none" xmlns="http://www.w3.org/2000/svg">
<path d="M294.395 108.893C-51.9689 53.0612 18.9752 575.736 102.895 611.202C178.729 662.401 298.467 722.5 485.895 611.5C569.896 576 641.895 51.8924 294.395 108.893Z" fill="#7C89AB"/>
<path d="M295.395 109.055C-52.1053 52.0551 18.8945 575.702 102.895 611.202C178.729 662.401 298.467 722.5 485.895 611.5C569.896 576 641.895 51.8924 294.395 108.893" stroke="#454A6A" stroke-width="13"/>
<path d="M60.4673 109.741L60.9678 61.0393C134.06 9.39822 246.564 -0.260434 294.467 1.74121C342.382 -0.263833 453.886 9.43027 526.967 61.2411V110.459C536.825 108.236 556.748 102.945 561.467 98.6469C566.267 94.2747 558.134 126.304 553.467 142.866L565.967 195.531C550.015 204.117 513.188 216.325 493.147 196.702C493.139 196.694 493.139 196.672 493.147 196.64L493.467 141.892C459.891 125.751 398.265 110.289 293.967 109.041C191.809 110.258 130.51 125.167 96.4673 140.977L94.9569 197.039C94.9176 196.915 94.8773 196.792 94.836 196.67C74.8058 216.485 37.9323 204.187 21.9673 195.539L34.4674 142.539C29.8007 125.873 21.6674 93.6393 26.4674 98.0393C31.1862 102.365 50.6102 107.504 60.4673 109.741Z" fill="#E7CBC7"/>
<path d="M60.4673 109.741L60.9678 61.0393C134.06 9.39822 246.564 -0.260434 294.467 1.74121C342.382 -0.263833 453.886 9.43027 526.967 61.2411V110.459M60.4673 109.741L60.9673 169.241C63.9067 161.729 74.526 151.166 96.4673 140.977M60.4673 109.741C60.3038 109.704 60.6369 109.78 60.4673 109.741ZM60.4673 109.741C50.6102 107.504 31.1862 102.365 26.4674 98.0393C21.6674 93.6393 29.8007 125.873 34.4674 142.539L21.9673 195.539C37.9323 204.187 74.8058 216.485 94.836 196.67M293.967 109.041C191.809 110.258 130.51 125.167 96.4673 140.977M94.836 196.67C94.8799 196.626 94.447 195.785 94.4907 195.741M94.836 196.67C94.8773 196.792 94.9176 196.915 94.9569 197.039L96.4673 140.977M94.836 196.67C88.5821 178.234 59.4908 193.064 60.9673 166.241M526.967 110.459L526.958 168.911M526.967 110.459C526.798 110.497 526.631 110.535 526.467 110.571M526.967 110.459C536.825 108.236 556.748 102.945 561.467 98.6469C566.267 94.2747 558.134 126.304 553.467 142.866L565.967 195.531C550.015 204.117 513.188 216.325 493.147 196.702M526.967 169.241L526.949 169.196M526.949 169.196C526.158 191.9 499.264 179.237 493.147 196.702M526.949 169.196C526.982 168.271 526.971 167.288 526.913 166.241M526.949 169.196C524.068 161.912 514.026 151.775 493.467 141.892M293.879 109.04C398.23 110.28 459.882 125.747 493.467 141.892M493.147 196.702C493.087 196.643 493.527 195.8 493.467 195.741M493.147 196.702C493.085 196.878 493.025 197.058 492.967 197.241M493.147 196.702L493.467 141.892" stroke="#454A6A" stroke-width="3"/>
<path d="M94.7115 196.58C94.6019 196.328 94.4652 196.031 94.4907 196.006C87.657 179.186 60.4772 193.872 61.4369 168.418C64.9378 160.994 75.565 150.948 96.4673 141.241L94.9569 197.304C94.9176 197.179 94.8773 197.056 94.836 196.934C94.7954 196.815 94.7539 196.697 94.7115 196.58Z" fill="#BC736D"/>
<path d="M493.147 196.966C493.139 196.958 493.139 196.936 493.147 196.904L493.467 142.156C514.026 152.039 524.068 162.177 526.949 169.46C526.158 192.164 499.264 179.502 493.147 196.966Z" fill="#BC736D"/>
<path d="M60.9673 169.506C63.9067 161.994 74.526 151.431 96.4673 141.241L94.9569 197.304C94.9176 197.179 94.8773 197.056 94.836 196.934M94.836 196.934C94.8799 196.891 94.447 196.049 94.4907 196.006M94.836 196.934C88.5821 178.499 59.9908 194.587 61.4673 167.764M526.967 169.506L526.949 169.46M526.949 169.46C526.158 192.164 499.264 179.502 493.147 196.966M526.949 169.46C526.982 168.536 526.971 167.552 526.913 166.506M526.949 169.46C524.068 162.177 514.026 152.039 493.467 142.156L493.147 196.966M493.147 196.966C493.087 196.907 493.527 196.065 493.467 196.006M493.147 196.966C493.085 197.143 493.025 197.323 492.967 197.506" stroke="#454A6A" stroke-width="3"/>
<path d="M60.4673 109.351L60.9458 166.289C59.8289 192.056 87.6218 178.441 94.4907 195.352C94.5669 195.539 94.6405 195.73 94.7114 195.926C94.7897 196.105 94.8543 196.262 94.836 196.28C74.8058 216.096 37.9323 203.797 21.9673 195.15L34.4674 142.15C29.8007 125.483 21.6674 93.2497 26.4674 97.6497C31.1862 101.975 50.6102 107.114 60.4673 109.351Z" fill="#F1B1B1"/>
<path d="M526.958 166.995L526.967 110.069C536.825 107.846 556.748 102.556 561.467 98.2573C566.267 93.8851 558.134 125.915 553.467 142.476L565.967 195.141C550.015 203.728 513.188 215.936 493.147 196.312C499.264 178.848 526.158 191.51 526.949 168.806C526.953 168.712 526.956 168.617 526.958 168.521L526.958 166.995Z" fill="#F1B1B1"/>
<path d="M60.4673 109.351L60.9673 168.851M60.4673 109.351C60.3038 109.315 60.6369 109.39 60.4673 109.351ZM60.4673 109.351C50.6102 107.114 31.1862 101.975 26.4674 97.6497C21.6674 93.2497 29.8007 125.483 34.4674 142.15L21.9673 195.15C37.9323 203.797 74.8058 216.096 94.836 196.28M94.836 196.28C94.8799 196.237 94.447 195.395 94.4907 195.352M94.836 196.28C94.8773 196.402 94.9176 196.525 94.9569 196.65M94.836 196.28C88.5821 177.845 59.4908 192.675 60.9673 165.852M526.967 110.069L526.958 168.521M526.967 110.069C526.798 110.108 526.631 110.145 526.467 110.182M526.967 110.069C536.825 107.846 556.748 102.556 561.467 98.2573C566.267 93.8851 558.134 125.915 553.467 142.476L565.967 195.141C550.015 203.728 513.188 215.936 493.147 196.312M526.967 168.851L526.949 168.806M526.949 168.806C526.158 191.51 499.264 178.848 493.147 196.312M526.949 168.806C526.982 167.881 526.971 166.898 526.913 165.851M493.147 196.312C493.087 196.253 493.527 195.411 493.467 195.352M493.147 196.312C493.085 196.489 493.025 196.668 492.967 196.851" stroke="#454A6A" stroke-width="3"/>
<path d="M483.594 46.7214L480.167 61.6235L448.74 54.3969C446.825 53.9566 445.369 54.1253 444.297 54.7962C443.226 55.4671 442.438 56.7038 441.997 58.6183L441.54 60.6074C441.1 62.5218 441.269 63.9785 441.939 65.0501C442.61 66.1216 443.847 66.9096 445.761 67.3499L463.668 71.4675C470.232 72.9769 474.805 75.6492 477.253 79.5595C479.701 83.4701 480.108 88.7514 478.599 95.3156L477.455 100.289C475.946 106.854 473.273 111.426 469.362 113.874C465.452 116.322 460.171 116.73 453.607 115.22C450.219 114.441 446.647 113.549 442.892 112.546L442.888 112.545L433.827 110.042L433.824 110.042C427.13 108.153 420.235 106.078 413.138 103.817L412.699 103.678L416.009 89.2842L416.517 89.43C434.462 94.6039 446.637 97.9273 453.055 99.4031C454.485 99.732 455.635 99.5735 456.556 98.9967C457.568 98.3635 458.248 97.3663 458.574 95.9476L460.521 87.482L438.127 82.3325C431.105 80.7178 426.24 77.9458 423.672 73.9383L423.666 73.9299C421.183 69.8694 420.815 64.2827 422.43 57.2611L423.116 54.2765C424.731 47.256 427.495 42.4203 431.491 39.9181C435.568 37.3662 441.164 36.9646 448.188 38.5798L483.594 46.7214Z" fill="white" stroke="#454A6A"/>
<path d="M381.435 26.7872L381.524 27.1212L401.177 100.954L401.363 101.654L380.49 99.5225L380.405 99.1821L377.218 86.3622L352.528 83.8414L346.814 95.7522L346.662 96.0685L325.79 93.9374L326.114 93.2901L360.283 24.9524L360.438 24.6433L381.435 26.7872ZM358.892 70.1464L373.752 71.6637L368.55 49.082L358.892 70.1464Z" fill="white" stroke="#454A6A"/>
<path d="M281.287 21V78.1641H318.545V93.4551H261.913V21H281.287Z" fill="white" stroke="#454A6A"/>
<path d="M241.316 21.8798L242.868 37.0918L221.542 39.2681L227.346 96.1368L208.072 98.1037L202.268 41.235L180.943 43.4112L179.39 28.1992L241.316 21.8798Z" fill="white" stroke="#454A6A"/>
<path d="M145.452 37.7641L145.643 38.0518L188.018 101.628L188.42 102.23L167.972 106.932L167.782 106.637L160.637 95.5255L136.451 101.087L134.876 114.203L134.833 114.551L114.386 119.253L114.484 118.536L124.835 42.8365L124.882 42.4939L145.452 37.7641ZM138.067 86.0724L152.625 82.725L140.43 63.02L138.067 86.0724Z" fill="white" stroke="#454A6A"/>
<rect x="196.467" y="106" width="197" height="43" rx="16.5" fill="#E2857E" stroke="#454A6A" stroke-width="3"/>
<path d="M246.032 138.2C241.572 138.6 237.872 138.8 234.932 138.8C232.972 138.8 231.532 138.34 230.612 137.42C229.692 136.5 229.232 135.06 229.232 133.1V123.5C229.232 121.4 229.702 119.88 230.642 118.94C231.602 117.98 233.132 117.5 235.232 117.5H246.032V121.7H236.432C235.232 121.7 234.632 122.3 234.632 123.5V133.1C234.632 133.56 234.762 133.93 235.022 134.21C235.302 134.47 235.652 134.6 236.072 134.6C236.492 134.6 236.952 134.6 237.452 134.6C237.952 134.58 238.472 134.56 239.012 134.54C239.552 134.52 240.092 134.5 240.632 134.48C241.192 134.46 241.902 134.42 242.762 134.36C243.642 134.3 244.732 134.23 246.032 134.15V138.2ZM262.836 123.2C262.836 122 262.236 121.4 261.036 121.4H255.936C254.736 121.4 254.136 122 254.136 123.2V132.8C254.136 134 254.736 134.6 255.936 134.6H261.036C262.236 134.6 262.836 134 262.836 132.8V123.2ZM268.236 132.8C268.236 134.9 267.756 136.43 266.796 137.39C265.856 138.33 264.336 138.8 262.236 138.8H254.736C252.636 138.8 251.106 138.33 250.146 137.39C249.206 136.43 248.736 134.9 248.736 132.8V123.2C248.736 121.1 249.206 119.58 250.146 118.64C251.106 117.68 252.636 117.2 254.736 117.2H262.236C264.336 117.2 265.856 117.68 266.796 118.64C267.756 119.58 268.236 121.1 268.236 123.2V132.8ZM277.55 134.3H288.5V138.5H272.15V117.5H277.55V134.3ZM308.157 138.5H291.507V117.5H308.157V121.7H296.907V125.75H305.757V129.95H296.907V134.3H308.157V138.5ZM297.717 116.57L299.517 111.47H304.917L301.617 116.57H297.717ZM329.45 138.05C324.77 138.55 320.47 138.8 316.55 138.8C314.59 138.8 313.15 138.34 312.23 137.42C311.31 136.5 310.85 135.06 310.85 133.1V123.5C310.85 121.4 311.32 119.88 312.26 118.94C313.22 117.98 314.75 117.5 316.85 117.5H327.65V121.7H318.05C316.85 121.7 316.25 122.3 316.25 123.5V133.1C316.25 133.56 316.38 133.93 316.64 134.21C316.92 134.47 317.29 134.6 317.75 134.6C320.05 134.6 322.15 134.55 324.05 134.45V130.1H320.15V126.5H329.45V138.05ZM343.256 138.5H332.456V134.3H335.156V121.7H332.456V117.5H343.256V121.7H340.556V134.3H343.256V138.5ZM360.353 123.2C360.353 122 359.753 121.4 358.553 121.4H353.453C352.253 121.4 351.653 122 351.653 123.2V132.8C351.653 134 352.253 134.6 353.453 134.6H358.553C359.753 134.6 360.353 134 360.353 132.8V123.2ZM365.753 132.8C365.753 134.9 365.273 136.43 364.313 137.39C363.373 138.33 361.853 138.8 359.753 138.8H352.253C350.153 138.8 348.623 138.33 347.663 137.39C346.723 136.43 346.253 134.9 346.253 132.8V123.2C346.253 121.1 346.723 119.58 347.663 118.64C348.623 117.68 350.153 117.2 352.253 117.2H359.753C361.853 117.2 363.373 117.68 364.313 118.64C365.273 119.58 365.753 121.1 365.753 123.2V132.8Z" fill="white"/>
<path d="M192.844 529V603L277.343 660V485C271.343 458.5 230.343 444.5 173.843 407.5C168.749 407.791 159.283 411.082 157.231 421.5C84.7313 364.5 106.343 338 97.8428 326.5C91.0428 317.3 84.5109 314 81.8442 313.5C59.343 434.5 117.843 458.5 192.844 529Z" fill="#D7B6B1"/>
<path d="M157.231 421.5C84.7313 364.5 106.343 338 97.8428 326.5C91.0428 317.3 84.5109 314 81.8442 313.5C59.343 434.5 117.843 458.5 192.844 529V603L277.343 660V485C271.343 458.5 230.343 444.5 173.843 407.5C168.009 407.833 156.443 412.1 156.843 426.5C157.243 440.9 193.343 465.167 211.343 475.5" stroke="#454A6A" stroke-width="3" stroke-linecap="round"/>
<path d="M395.466 529V603L310.967 660V485C316.967 458.5 357.967 444.5 414.467 407.5C419.561 407.791 429.027 411.082 431.079 421.5C503.579 364.5 481.967 338 490.467 326.5C497.267 317.3 503.799 314 506.466 313.5C528.967 434.5 470.467 458.5 395.466 529Z" fill="#D7B6B1"/>
<path d="M431.079 421.5C503.579 364.5 481.967 338 490.467 326.5C497.267 317.3 503.799 314 506.466 313.5C528.967 434.5 470.467 458.5 395.466 529V603L310.967 660V485C316.967 458.5 357.967 444.5 414.467 407.5C420.301 407.833 431.867 412.1 431.467 426.5C431.067 440.9 394.967 465.167 376.967 475.5" stroke="#454A6A" stroke-width="3" stroke-linecap="round"/>
<path d="M4.44352 641.478C-0.525122 636.979 1.97287 630.5 3.47047 630.5C6.50325 630.253 9.51834 630.034 12.5173 629.841L26.8883 582.058C27.4444 580.228 29.6305 579.425 31.3138 580.332C160.687 650.064 203.748 538.411 294.471 668.298C385.193 538.411 427.253 650.362 556.626 580.631C558.31 579.723 560.496 580.526 561.052 582.356L575.467 630.142C578.412 630.332 581.374 630.547 584.351 630.788C584.38 630.788 584.41 630.791 584.44 630.796C585.969 631.038 588.874 637.385 583.97 641.798C436.37 634.998 328.803 685.167 293.97 711C259.174 685.194 151.8 634.808 4.44352 641.478Z" fill="#E7CBC7"/>
<path d="M4.4675 641.5C-0.533142 637 1.97047 630.5 3.47047 630.5C6.50325 630.253 9.51834 630.034 12.5173 629.841M584.351 630.788C585.851 630.788 588.97 637.298 583.97 641.798C436.37 634.998 328.803 685.167 293.97 711C259.136 685.167 151.57 634.7 3.96956 641.5M12.5173 629.841C155.471 620.652 259.638 671.7 294.082 698.798C329.249 671.131 436.87 618.798 584.47 630.798M12.5173 629.841L12.4696 630M12.5173 629.841L26.8883 582.058C27.4444 580.228 29.6305 579.425 31.3138 580.332C160.687 650.064 203.748 538.411 294.471 668.298C385.193 538.411 427.253 650.362 556.626 580.631C558.31 579.723 560.496 580.526 561.052 582.356L575.467 630.142" stroke="#454A6A" stroke-width="3"/>
<path d="M4.91081 642.229C-0.0578372 637.73 2.44016 631.251 3.93775 631.251C6.97053 631.004 9.98563 630.785 12.9846 630.592C155.938 621.403 260.105 672.451 294.549 699.549C329.707 671.89 437.28 619.577 584.819 631.539C584.848 631.539 584.877 631.542 584.907 631.546C586.436 631.789 589.341 638.136 584.437 642.549C436.837 635.749 329.27 685.917 294.437 711.751C259.641 685.945 152.267 635.559 4.91081 642.229Z" fill="#E2857E"/>
<path d="M4.93478 642.251C-0.0658572 637.751 2.43775 631.251 3.93775 631.251C6.97053 631.004 9.98563 630.785 12.9846 630.592M584.819 631.539C586.319 631.539 589.438 638.049 584.437 642.549C436.837 635.749 329.27 685.917 294.437 711.751C259.604 685.917 152.037 635.451 4.43685 642.251M12.9846 630.592C155.938 621.403 260.105 672.451 294.549 699.549C329.716 671.882 437.338 619.549 584.938 631.549M12.9846 630.592L12.9369 630.751" stroke="#454A6A" stroke-width="3"/>
<path d="M289.467 683C279.634 673.5 247.767 651.3 198.967 638.5" stroke="#DDB3A1" stroke-width="2" stroke-linecap="round"/>
<path d="M299.967 683C309.801 673.5 341.667 651.3 390.467 638.5" stroke="#DDB3A1" stroke-width="2" stroke-linecap="round"/>
<g clip-path="url(#clip0_214_1451)">
<path d="M293.467 181.5C273.53 181.5 254.644 185.965 237.713 193.911C237.725 193.846 237.755 193.79 237.76 193.721C236.052 194.516 234.361 195.347 232.685 196.216C232.771 196.242 232.872 196.252 232.965 196.272C232.656 196.436 232.339 196.587 232.033 196.753C232.003 196.702 231.962 196.672 231.938 196.623C230.968 197.133 230.001 197.64 229.049 198.174C229.144 198.192 229.229 198.218 229.322 198.236C228.307 198.803 227.299 199.378 226.302 199.972C226.249 199.93 226.195 199.907 226.145 199.862C226.711 199.53 227.269 199.186 227.836 198.862C227.263 199.194 226.681 199.524 226.112 199.862C226.115 199.865 226.121 199.868 226.124 199.871C225.887 200.013 225.646 200.156 225.409 200.298C225.519 200.286 225.579 200.328 225.673 200.336C225.16 200.645 224.661 200.971 224.154 201.286C224.19 201.182 224.211 201.09 224.249 200.984C224.249 200.984 224.247 200.984 224.243 200.986C224.243 200.984 224.246 200.98 224.246 200.978C224.154 201.037 224.059 201.099 223.958 201.158C224.015 201.122 224.068 201.093 224.128 201.061C223.926 201.188 223.718 201.316 223.514 201.443C223.576 201.401 223.635 201.363 223.698 201.324C223.123 201.681 222.541 202.039 221.971 202.407C222.351 202.164 222.736 201.93 223.119 201.695C222.736 201.938 222.36 202.187 221.977 202.436C221.977 202.508 221.992 202.594 221.995 202.668C221.959 202.692 221.924 202.715 221.885 202.739C221.85 202.682 221.826 202.617 221.782 202.567C221.844 202.525 221.903 202.484 221.966 202.442C221.972 202.43 221.966 202.418 221.966 202.409C221.897 202.454 221.826 202.501 221.755 202.549C221.764 202.551 221.767 202.563 221.77 202.573C218.154 204.916 214.654 207.42 211.293 210.101C211.319 210.178 211.364 210.25 211.394 210.321C181.311 234.42 162.022 271.446 162.022 313C162.022 385.623 220.873 444.5 293.465 444.5C366.06 444.5 424.912 385.623 424.912 313C424.912 240.373 366.06 181.5 293.465 181.5L293.467 181.5ZM387.834 225.36C387.967 225.582 388.125 225.781 388.246 226.009C384.812 227.012 385.099 224.301 382.174 224.799C383.402 226.919 384.277 231.301 387.03 228.438C387.273 230.058 388.694 228.954 389.984 227.744C408.628 248.852 420.475 276.105 422.064 306.092H417.353C425.006 317.99 408.68 323.119 401.584 327.933C403.746 332.955 408.525 326.396 411.287 329.143C410.094 341.305 401.501 346.043 395.517 353.414C395.819 362.636 396.161 365.116 395.517 374.039C383.183 382.464 382.382 408.449 362.76 405.582C359.509 396.701 359.381 384.69 355.478 376.463C363.562 364.824 352.188 357.036 353.052 342.495C351.424 340.484 346.686 341.59 346.985 337.639C339.418 340.253 333.977 339.184 326.36 340.065C320.896 337.036 318.707 330.733 314.227 326.722C318.318 314.967 311.649 302.505 325.149 297.602C324.5 283.17 347.456 280.883 356.692 284.259V289.109C361.453 290.017 363.713 293.42 367.614 295.176C367.412 292.138 369.486 291.375 371.26 290.32C374.962 292.672 374.046 296.009 379.752 293.965C381.885 294.659 386.878 292.497 387.029 295.178C388.829 294.149 388.784 291.272 389.455 289.109C388.343 284.968 381.985 286.063 378.526 284.259C376.868 282.711 376.868 278.529 378.526 276.977C370.802 276.414 377.281 282.835 372.466 284.259H370.04C371.084 280.385 368.132 280.507 367.614 278.193C364.003 277.893 363.007 286.412 359.127 281.832C367.759 280.411 354.238 269.616 353.06 274.552C352.852 272.737 353.494 270.076 351.844 269.699C347.533 271.043 344.74 273.917 340.921 275.766V280.619C339.85 281.162 338.756 281.687 338.501 283.043H327.573C327.514 281.494 326.028 281.364 326.362 279.397C328.148 276.733 326.223 270.358 330.008 269.694C333.496 268.003 336.172 273.001 337.284 269.694H338.5C339.041 265.117 336.101 263.998 334.855 261.204C334.988 258.914 338.872 260.362 338.5 257.561C348.842 256.989 349.144 246.366 355.489 241.792C354.469 243.201 353.884 245.043 354.279 247.855C358.746 248.97 356.48 241.456 355.489 240.575C352.674 240.19 350.832 240.768 349.423 241.792C347.738 240.237 348.681 236.063 346.997 234.506C354.667 227.621 356.967 215.358 370.049 213.884C373.952 214.842 377.47 216.186 380.491 218.034C383.031 220.369 385.478 222.819 387.836 225.358L387.834 225.36ZM333.625 239.362C339.947 240.723 338.196 250.165 343.334 252.708V255.134C340.416 254.638 340.698 257.353 337.268 256.35C334.975 256.077 334.593 257.712 332.418 257.561C337.327 251.105 331.017 245.769 333.625 239.362ZM332.421 253.917H326.348C325.868 249.393 327.321 246.798 331.204 246.638C332.605 248.073 332.578 250.93 332.421 253.917ZM313.005 228.441C311.934 225.878 309.31 224.855 309.36 221.162C314.216 222.351 316.648 222.351 321.498 221.162C321.729 222.144 322.721 222.372 322.709 223.585C322.543 228.273 317.972 228.558 313.005 228.441ZM305.723 235.721C303.863 240.734 297.945 241.689 293.594 244.211C292.217 243.986 292.915 242.994 293.594 243C293.41 240.758 289.485 242.253 288.738 240.574C287.519 225.745 307.049 222.304 305.723 235.721ZM397.938 387.384C394.897 378.061 401.61 374.347 405.214 366.759C408.8 369.639 403.754 374.101 404.003 377.675C402.695 379.923 401.061 381.858 400.417 384.783C400.37 384.845 400.331 384.916 400.283 384.985C398.991 385.27 398.459 386.319 397.938 387.384ZM313.232 185.668C313.151 185.771 313.116 185.852 313.013 185.964C313.778 186.121 314.686 186.13 315.638 186.097C317.673 186.45 319.687 186.848 321.686 187.296C319.728 188.189 319.2 190.514 316.664 190.817C315.783 194.525 317.898 195.24 317.869 198.097C315.783 198.575 314.757 196.299 314.23 198.097C318.395 203.466 308.273 208.138 314.23 212.656C305.393 217.168 292.943 218.064 287.535 226.002C284.913 229.037 283.708 233.498 280.255 235.705C271.599 233.213 269.926 218.927 272.531 213.445C272.78 213.264 272.958 213.011 272.964 212.665C272.806 212.899 272.664 213.16 272.531 213.442C271.893 213.89 270.763 213.748 270.549 212.653C276.239 196.548 256.666 201.27 253.56 192.027C255.583 190.411 261.285 192.469 260.839 188.388C260.667 188.411 260.517 188.455 260.341 188.476C270.911 185.67 282.008 184.154 293.457 184.154C300.185 184.154 306.783 184.673 313.232 185.667L313.232 185.668ZM232.942 199.263C235.399 200.064 237.433 200.53 240.204 198.112C238.62 198.017 236.731 198.225 235.138 198.139C240.86 195.225 246.822 192.728 252.998 190.684C248.293 193.12 245.181 197.148 242.642 201.746C236.974 202.298 232.556 202.859 228.976 201.494C230.291 200.728 231.605 199.975 232.942 199.263ZM227.12 202.558C227.393 203.143 227.909 203.483 229.294 202.953C228.004 205.703 225.616 207.361 222.015 207.806C222.916 206.62 223.308 205.682 223.51 204.843C224.705 204.068 225.897 203.291 227.12 202.558ZM213.088 212.362C213.234 212.463 213.373 212.573 213.521 212.662C213.234 216.008 209.012 215.432 207.458 217.518C215.595 219.929 215.931 210.247 220.805 216.301C221.303 213.383 218.589 213.664 219.594 210.241C221.143 210.176 221.273 208.683 223.237 209.028C223.83 215.943 227.763 212.824 229.3 217.518C229.558 216.156 230.646 215.625 231.726 215.094C233.016 210.57 227.172 213.174 228.087 209.027C228.256 202.317 238.329 205.521 242.646 202.961C242.667 204.966 246.01 203.64 246.285 205.387C244.692 205.229 237.507 205.203 241.432 206.6C253.816 205.628 253.624 214.844 260.843 221.162C258.458 220.797 258.434 222.8 257.198 223.582C255.588 223.766 253.541 218.652 252.348 222.375C255.003 222.553 254.956 225.43 254.772 228.441C248.756 226.463 254.087 228.587 251.129 230.865C246.599 228.519 243.111 225.131 237.78 223.583C240.759 222.521 244.775 222.494 245.063 218.733C245.964 214.995 241.725 216.404 242.637 212.667C240.857 212.678 232.705 212.209 236.57 213.883C237.567 219.324 233.087 219.3 231.714 222.376C233.494 223.429 235.562 224.194 235.357 227.229C234.381 226.589 233.387 225.966 231.714 226.016C230.187 226.318 230.492 228.43 231.714 228.442C231.495 230.492 225.951 227.881 226.858 224.803C221.11 226.731 218.283 231.593 214.729 235.722C215.77 240.343 220.386 241.39 224.432 243.001C225.41 243.645 226.408 244.269 228.077 244.212C227.199 247.923 229.317 248.632 229.288 251.492C233.426 241.738 236.985 244.251 236.57 228.44C237.603 228.659 237.715 227.965 237.781 227.227C238.973 227.123 240.664 230.43 245.063 229.65C248.145 230.612 245.719 237.084 249.913 236.933C253.841 238.433 250.838 233.008 254.769 234.503C258.569 245.829 265.169 251.595 266.902 262.412C263.194 263.29 262.481 261.172 259.625 261.201C255.383 262.284 257.552 257.244 258.409 256.345C260.153 255.666 261.369 254.45 262.052 252.702C257.477 253.853 253.832 260.231 249.919 255.129C250.921 258.555 248.21 258.273 248.706 261.195C248.481 262.228 249.177 262.34 249.919 262.408C250.859 262.678 252.316 262.438 252.343 263.619V264.835C246.573 268.567 231.528 272.871 229.291 286.674C225.734 286.751 224.785 289.448 223.228 291.528C220.656 292.611 225.627 300.014 222.011 302.45C219.077 300.931 218.089 297.473 217.155 293.957C206.123 287.556 186.119 307.784 205.022 312.159H206.239C205.8 308.312 212.895 306.725 213.513 310.946C211.715 311.979 210.905 313.996 211.089 317.007C210.884 319.643 215.393 317.564 217.155 318.223C216.815 323.598 214.58 328.247 220.795 329.14C221.738 329.413 223.194 329.176 223.224 330.356C227.989 329.864 228.406 325.026 232.93 324.29C235.647 326.811 240.764 327.846 248.7 327.929C250.403 335.529 259.616 335.618 264.47 340.067V346.134C273.138 348.388 279.533 352.912 287.521 355.833C286.379 367.236 278.869 372.258 279.035 384.959C275.772 386.558 272.58 388.215 269.325 389.808C268.201 397.785 262.959 407.426 255.977 405.578C255.481 408.503 258.196 408.215 257.187 411.651C244.761 415.162 247.526 422.721 245.536 432.59C242.376 431.321 239.276 429.942 236.242 428.437C231.427 418.977 239.481 401.526 236.574 384.278C234.31 370.837 215.189 363.089 218.582 347.087C220.745 344.45 223.26 342.169 224.578 338.686C215.848 325.83 198.707 321.368 186.193 312.296C186.543 305.547 184.087 301.605 180.195 299.102C180.397 302.501 182.396 304.1 182.601 307.497C174.155 299.251 171.082 286.243 170.723 273.896C178.528 249.383 193.466 228.071 213.088 212.363L213.088 212.362ZM237.78 312.16C238.198 317.366 233.359 315.438 230.503 314.586C231.616 312.465 234.292 311.905 237.78 312.16ZM215.942 307.304C219.228 302.003 227.514 309.424 230.503 312.163C223.897 312.291 222.915 306.797 215.942 307.304Z" fill="#454A6A"/>
</g>
<defs>
<clipPath id="clip0_214_1451">
<rect width="263" height="263" fill="white" transform="translate(161.967 181.5)"/>
</clipPath>
</defs>
</svg>
