<svg width="34" height="34" viewBox="0 0 34 34" fill="none" xmlns="http://www.w3.org/2000/svg">
<circle cx="17" cy="17" r="17" fill="#84879C"/>
<path d="M9 25V24C9 20.134 12.134 17 16 17" stroke="white" stroke-width="1.5" stroke-linecap="round" stroke-linejoin="round"/>
<path d="M22.8038 17.3135C23.4456 16.6088 24.5544 16.6088 25.1962 17.3135V17.3135C25.5206 17.6697 25.9868 17.8628 26.468 17.8403V17.8403C27.4201 17.7958 28.2042 18.5799 28.1597 19.532V19.532C28.1372 20.0132 28.3303 20.4794 28.6865 20.8038V20.8038C29.3912 21.4456 29.3912 22.5544 28.6865 23.1962V23.1962C28.3303 23.5206 28.1372 23.9868 28.1597 24.468V24.468C28.2042 25.4201 27.4201 26.2042 26.468 26.1597V26.1597C25.9868 26.1372 25.5206 26.3303 25.1962 26.6865V26.6865C24.5544 27.3912 23.4456 27.3912 22.8038 26.6865V26.6865C22.4794 26.3303 22.0132 26.1372 21.532 26.1597V26.1597C20.5799 26.2042 19.7958 25.4201 19.8403 24.468V24.468C19.8628 23.9868 19.6697 23.5206 19.3135 23.1962V23.1962C18.6088 22.5544 18.6088 21.4456 19.3135 20.8038V20.8038C19.6697 20.4794 19.8628 20.0132 19.8403 19.532V19.532C19.7958 18.5799 20.5799 17.7958 21.532 17.8403V17.8403C22.0132 17.8628 22.4794 17.6697 22.8038 17.3135V17.3135Z" stroke="white" stroke-width="1.5"/>
<path d="M22.3633 22L23.4542 23.0909L25.636 20.9091" stroke="white" stroke-width="1.5" stroke-linecap="round" stroke-linejoin="round"/>
<path d="M16 17C18.2091 17 20 15.2091 20 13C20 10.7909 18.2091 9 16 9C13.7909 9 12 10.7909 12 13C12 15.2091 13.7909 17 16 17Z" stroke="white" stroke-width="1.5" stroke-linecap="round" stroke-linejoin="round"/>
</svg>
