<svg width="500" height="500" viewBox="0 0 500 500" fill="none" xmlns="http://www.w3.org/2000/svg">
<path d="M417.4 326.93H443.88V315.74H417.4V326.93Z" fill="#EBEBEB"/>
<path d="M432.18 341.04H458.66V329.85H432.18V341.04Z" fill="#EBEBEB"/>
<path d="M206.41 203.36H232.89V192.17H206.41V203.36Z" fill="#EBEBEB"/>
<path d="M221.19 217.47H247.67V206.28H221.19V217.47Z" fill="#EBEBEB"/>
<path d="M235.9 203.36H262.38V192.17H235.9V203.36Z" fill="#EBEBEB"/>
<path d="M41.3403 341.03H67.8203V329.84H41.3403V341.03Z" fill="#EBEBEB"/>
<path d="M56.1196 57.9199H82.5996V46.7299H56.1196V57.9199Z" fill="#EBEBEB"/>
<path d="M41.3403 72.03H67.8203V60.84H41.3403V72.03Z" fill="#EBEBEB"/>
<path d="M417.4 57.9199H443.88V46.7299H417.4V57.9199Z" fill="#EBEBEB"/>
<path d="M450.64 71.26H307.84V230.58H450.64V71.26Z" fill="#DBDBDB"/>
<path d="M441.24 80.6699H317.25V221.26H441.24V80.6699Z" fill="#EBEBEB"/>
<path d="M372.16 105.53H328.46V157.32H372.16V105.53Z" fill="white"/>
<path d="M351.88 109.05C351.88 109.36 351.788 109.664 351.616 109.922C351.443 110.18 351.198 110.382 350.911 110.5C350.624 110.619 350.309 110.65 350.004 110.59C349.699 110.529 349.42 110.38 349.2 110.16C348.98 109.941 348.831 109.661 348.77 109.356C348.71 109.052 348.741 108.736 348.86 108.449C348.979 108.162 349.18 107.917 349.438 107.745C349.696 107.572 350 107.48 350.31 107.48C350.727 107.48 351.126 107.645 351.42 107.94C351.715 108.234 351.88 108.634 351.88 109.05Z" fill="#A6A6A6"/>
<path d="M336.78 115.9C341.2 115.56 345.62 115.54 350.03 115.49C354.44 115.44 358.87 115.56 363.29 115.9C358.87 116.24 354.45 116.26 350.03 116.31C345.61 116.36 341.2 116.24 336.78 115.9Z" fill="#EBEBEB"/>
<path d="M336.78 120C341.568 119.453 346.402 119.453 351.19 120C348.799 120.296 346.39 120.433 343.98 120.41C341.574 120.428 339.169 120.291 336.78 120Z" fill="#EBEBEB"/>
<path d="M336.78 124.09C339.841 123.799 342.915 123.662 345.99 123.68C349.062 123.657 352.133 123.794 355.19 124.09C352.12 124.41 349.06 124.48 345.99 124.5C342.92 124.52 339.85 124.41 336.78 124.09Z" fill="#EBEBEB"/>
<path d="M336.78 128.18C340.62 127.86 344.46 127.78 348.3 127.77C352.14 127.76 355.98 127.86 359.82 128.18C355.98 128.5 352.14 128.58 348.3 128.59C344.46 128.6 340.62 128.5 336.78 128.18Z" fill="#EBEBEB"/>
<path d="M336.78 132.27C340.11 131.95 343.45 131.88 346.78 131.86C350.11 131.84 353.45 131.95 356.78 132.27C353.44 132.59 350.1 132.67 346.78 132.68C343.46 132.69 340.11 132.59 336.78 132.27Z" fill="#EBEBEB"/>
<path d="M336.78 136.36C341.05 136.02 345.32 136 349.59 135.95C353.86 135.9 358.13 136.02 362.4 136.36C358.13 136.71 353.86 136.73 349.59 136.78C345.32 136.83 341.05 136.7 336.78 136.36Z" fill="#EBEBEB"/>
<path d="M336.78 140.46C339.527 140.169 342.288 140.032 345.05 140.05C347.816 140.027 350.58 140.164 353.33 140.46C347.827 141.007 342.283 141.007 336.78 140.46Z" fill="#EBEBEB"/>
<path d="M336.78 144.55C341.2 144.21 345.62 144.19 350.03 144.14C354.44 144.09 358.87 144.21 363.29 144.55C358.87 144.89 354.45 144.91 350.03 144.96C345.61 145.01 341.2 144.89 336.78 144.55Z" fill="#EBEBEB"/>
<path d="M336.78 148.64C341.2 148.3 345.62 148.28 350.03 148.23C354.44 148.18 358.87 148.3 363.29 148.64C358.87 148.98 354.45 149.01 350.03 149.05C345.61 149.09 341.2 149 336.78 148.64Z" fill="#EBEBEB"/>
<path d="M430.53 137.82H378.82V199.1H430.53V137.82Z" fill="white"/>
<path d="M385.13 142.28C385.13 142.59 385.038 142.894 384.866 143.152C384.693 143.41 384.448 143.612 384.161 143.73C383.874 143.849 383.559 143.88 383.254 143.82C382.949 143.759 382.67 143.61 382.45 143.39C382.23 143.171 382.081 142.891 382.02 142.586C381.96 142.282 381.991 141.966 382.11 141.679C382.229 141.392 382.43 141.147 382.688 140.975C382.946 140.802 383.25 140.71 383.56 140.71C383.977 140.71 384.376 140.875 384.67 141.17C384.965 141.464 385.13 141.864 385.13 142.28Z" fill="#A6A6A6"/>
<path d="M386.05 153.11C387.949 152.821 389.868 152.681 391.79 152.69C393.708 152.676 395.624 152.816 397.52 153.11C393.716 153.657 389.854 153.657 386.05 153.11Z" fill="#EBEBEB"/>
<path d="M386.05 157.73C388.516 157.441 390.997 157.3 393.48 157.31C395.959 157.295 398.438 157.436 400.9 157.73C395.965 158.277 390.985 158.277 386.05 157.73Z" fill="#EBEBEB"/>
<path d="M386.05 162.35C388.331 162.059 390.63 161.922 392.93 161.94C395.23 161.917 397.529 162.054 399.81 162.35C395.239 162.897 390.62 162.897 386.05 162.35Z" fill="#EBEBEB"/>
<path d="M386.05 167C388.331 166.709 390.63 166.572 392.93 166.59C395.23 166.567 397.529 166.704 399.81 167C395.239 167.547 390.62 167.547 386.05 167Z" fill="#EBEBEB"/>
<path d="M386.05 171.59C388.036 171.299 390.042 171.162 392.05 171.18C394.058 171.157 396.064 171.294 398.05 171.59C394.069 172.14 390.031 172.14 386.05 171.59Z" fill="#EBEBEB"/>
<path d="M386.05 176.21C388.589 175.919 391.144 175.782 393.7 175.8C396.256 175.777 398.811 175.914 401.35 176.21C396.264 176.757 391.135 176.757 386.05 176.21Z" fill="#EBEBEB"/>
<path d="M386.05 180.83C390.242 180.284 394.488 180.284 398.68 180.83C394.488 181.377 390.242 181.377 386.05 180.83Z" fill="#EBEBEB"/>
<path d="M386.05 185.45C391.312 184.903 396.617 184.903 401.88 185.45C396.617 185.997 391.312 185.997 386.05 185.45Z" fill="#EBEBEB"/>
<path d="M386.05 190.07C391.312 189.523 396.617 189.523 401.88 190.07C396.617 190.617 391.312 190.617 386.05 190.07Z" fill="#EBEBEB"/>
<path d="M408.649 153.11C411.145 152.821 413.657 152.68 416.169 152.69C418.679 152.675 421.187 152.816 423.679 153.11C418.694 153.654 413.665 153.654 408.679 153.11H408.649Z" fill="#EBEBEB"/>
<path d="M408.649 157.73C410.28 157.442 411.933 157.301 413.589 157.31C415.246 157.295 416.899 157.436 418.529 157.73C415.259 158.276 411.92 158.276 408.649 157.73Z" fill="#EBEBEB"/>
<path d="M408.649 162.35C410.995 162.059 413.356 161.922 415.719 161.94C418.083 161.917 420.445 162.054 422.789 162.35C418.092 162.897 413.347 162.897 408.649 162.35Z" fill="#EBEBEB"/>
<path d="M408.649 167C410.931 166.709 413.229 166.572 415.529 166.59C417.829 166.567 420.128 166.704 422.409 167C417.839 167.547 413.22 167.547 408.649 167Z" fill="#EBEBEB"/>
<path d="M408.649 171.59C411.145 171.299 413.657 171.162 416.169 171.18C418.679 171.157 421.187 171.294 423.679 171.59C418.694 172.134 413.665 172.134 408.679 171.59H408.649Z" fill="#EBEBEB"/>
<path d="M408.649 176.21C410.636 175.918 412.642 175.781 414.649 175.8C416.657 175.776 418.664 175.913 420.649 176.21C416.668 176.761 412.63 176.761 408.649 176.21Z" fill="#EBEBEB"/>
<path d="M408.649 180.83C413.347 180.283 418.092 180.283 422.789 180.83C418.092 181.377 413.347 181.377 408.649 180.83Z" fill="#EBEBEB"/>
<path d="M408.649 185.45C412.276 184.903 415.963 184.903 419.589 185.45C415.963 185.997 412.276 185.997 408.649 185.45Z" fill="#EBEBEB"/>
<path d="M408.649 190.07C412.125 189.523 415.664 189.523 419.139 190.07C415.664 190.617 412.125 190.617 408.649 190.07Z" fill="#EBEBEB"/>
<path d="M394.44 91.29H368.14V117.59H394.44V91.29Z" fill="#A6A6A6"/>
<path d="M382.86 93.9999C382.86 94.3104 382.768 94.614 382.595 94.8722C382.423 95.1304 382.177 95.3316 381.891 95.4504C381.604 95.5693 381.288 95.6003 380.983 95.5398C380.679 95.4792 380.399 95.3297 380.18 95.1101C379.96 94.8905 379.81 94.6108 379.75 94.3062C379.689 94.0017 379.72 93.686 379.839 93.3991C379.958 93.1122 380.159 92.867 380.417 92.6945C380.676 92.522 380.979 92.4299 381.29 92.4299C381.706 92.4299 382.105 92.5953 382.4 92.8898C382.694 93.1842 382.86 93.5835 382.86 93.9999Z" fill="#EBEBEB"/>
<path d="M441.13 80.6699H437.58V221.42H441.13V80.6699Z" fill="#C7C7C7"/>
<path d="M156.635 119.28C170.493 99.8723 165.995 72.9049 146.587 59.0463C127.18 45.1877 100.212 49.686 86.3539 69.0935C72.4953 88.501 76.9936 115.468 96.4011 129.327C115.809 143.186 142.776 138.687 156.635 119.28Z" fill="#EBEBEB"/>
<path d="M156.422 119.854C170.075 101.651 166.386 75.8269 148.182 62.1744C129.979 48.5219 104.155 52.211 90.5023 70.4143C76.8498 88.6176 80.5389 114.442 98.7422 128.094C116.945 141.747 142.77 138.058 156.422 119.854Z" fill="#DBDBDB"/>
<path d="M145.847 126.59C163.213 114.226 167.268 90.1241 154.903 72.7579C142.539 55.3916 118.438 51.3368 101.071 63.7012C83.7051 76.0656 79.6503 100.167 92.0147 117.533C104.379 134.9 128.48 138.954 145.847 126.59Z" fill="white"/>
<path opacity="0.5" d="M161.19 87C143.61 97.65 114.72 115.12 98.58 124.7C93.9979 120.841 90.3759 115.969 88 110.47L141.43 61C146.423 63.6273 150.779 67.3167 154.193 71.8086C157.607 76.3006 159.995 81.4859 161.19 87Z" fill="#EBEBEB"/>
<path opacity="0.5" d="M162 96.5C161.866 100.777 161.018 105.002 159.49 109L111.34 131.77C109.244 131.072 107.21 130.199 105.26 129.16C119.81 120.79 146.38 105.5 162 96.5Z" fill="#EBEBEB"/>
<path d="M123.84 59.3501H123.09V65.2001H123.84V59.3501Z" fill="#C7C7C7"/>
<path d="M105.895 63.9441L105.245 64.3191L108.17 69.3853L108.82 69.0103L105.895 63.9441Z" fill="#C7C7C7"/>
<path d="M92.9521 76.5431L92.5771 77.1956L97.6666 80.1206L98.0416 79.4681L92.9521 76.5431Z" fill="#C7C7C7"/>
<path d="M93.5199 94.78H87.6699V95.53H93.5199V94.78Z" fill="#C7C7C7"/>
<path d="M97.3343 109.806L92.2686 112.732L92.6437 113.382L97.7094 110.456L97.3343 109.806Z" fill="#C7C7C7"/>
<path d="M108.162 120.914L105.239 125.981L105.889 126.356L108.812 121.289L108.162 120.914Z" fill="#C7C7C7"/>
<path d="M123.84 125.1H123.09V130.95H123.84V125.1Z" fill="#C7C7C7"/>
<path d="M138.761 120.891L138.111 121.266L141.036 126.332L141.686 125.957L138.761 120.891Z" fill="#C7C7C7"/>
<path d="M149.591 109.805L149.216 110.455L154.282 113.381L154.657 112.731L149.591 109.805Z" fill="#C7C7C7"/>
<path d="M159.26 94.78H153.41V95.53H159.26V94.78Z" fill="#C7C7C7"/>
<path d="M154.279 76.9241L149.214 79.8508L149.589 80.5002L154.654 77.5734L154.279 76.9241Z" fill="#C7C7C7"/>
<path d="M141.043 63.9532L138.121 69.021L138.771 69.3957L141.693 64.3279L141.043 63.9532Z" fill="#C7C7C7"/>
<path d="M124.03 62L125.3 97.75L121.63 97.71L123.03 61.99L124.03 62Z" fill="#C7C7C7"/>
<path d="M146.3 82.6801L122.24 98.0301L120.49 94.8201L145.82 81.8101L146.3 82.6801Z" fill="#A6A6A6"/>
<path d="M124.71 95.1499C124.71 95.3972 124.637 95.6388 124.499 95.8444C124.362 96.05 124.167 96.2102 123.938 96.3048C123.71 96.3994 123.459 96.4242 123.216 96.3759C122.974 96.3277 122.751 96.2086 122.576 96.0338C122.401 95.859 122.282 95.6363 122.234 95.3938C122.186 95.1513 122.211 94.9 122.305 94.6716C122.4 94.4432 122.56 94.248 122.765 94.1106C122.971 93.9733 123.213 93.8999 123.46 93.8999C123.624 93.8986 123.788 93.93 123.94 93.9924C124.092 94.0547 124.23 94.1467 124.347 94.2631C124.463 94.3794 124.555 94.5178 124.618 94.67C124.68 94.8223 124.711 94.9854 124.71 95.1499Z" fill="#C7C7C7"/>
<path d="M465.97 433L411.98 433.25L357.99 433.33L250 433.5L142.01 433.34L88.0195 433.25L34.0195 433L88.0195 432.76L142.01 432.67L250 432.5L357.99 432.67L411.98 432.76L465.97 433Z" fill="#263238"/>
<path d="M417.46 141.23C417.386 138.169 417.503 135.106 417.81 132.06C418.076 129.012 418.526 125.983 419.16 122.99C419.233 126.051 419.117 129.114 418.81 132.16C418.544 135.208 418.093 138.237 417.46 141.23Z" fill="#263238"/>
<path d="M412.06 142.28C410.472 139.663 409.046 136.951 407.79 134.16C406.489 131.39 405.363 128.541 404.42 125.63C407.569 130.883 410.131 136.467 412.06 142.28Z" fill="#263238"/>
<path d="M407.92 145.89C405.237 144.419 402.645 142.786 400.16 141C397.645 139.25 395.244 137.343 392.97 135.29C398.323 138.27 403.336 141.824 407.92 145.89Z" fill="#263238"/>
<path d="M406.13 151.08C400.006 151.182 393.889 150.612 387.89 149.38C390.947 149.306 394.007 149.423 397.05 149.73C400.101 149.996 403.133 150.447 406.13 151.08Z" fill="#263238"/>
<path d="M425.52 157.75C430.889 160.729 435.918 164.284 440.52 168.35C437.832 166.886 435.24 165.252 432.76 163.46C430.232 161.706 427.814 159.799 425.52 157.75Z" fill="#263238"/>
<path d="M427.31 152.56C433.437 152.459 439.557 153.029 445.56 154.26C442.499 154.334 439.436 154.217 436.39 153.91C433.338 153.644 430.306 153.194 427.31 152.56Z" fill="#263238"/>
<path d="M426.26 147.16C428.877 145.572 431.588 144.146 434.38 142.89C437.15 141.589 439.999 140.463 442.91 139.52C440.295 141.109 437.587 142.539 434.8 143.8C432.026 145.096 429.173 146.218 426.26 147.16Z" fill="#263238"/>
<path d="M422.649 143C424.121 140.314 425.757 137.723 427.549 135.24C429.293 132.724 431.197 130.322 433.249 128.05C430.273 133.421 426.718 138.451 422.649 143.05V143Z" fill="#263238"/>
<path d="M195 368.79C193.89 370.2 100.52 374.39 96.0797 373.11C95.864 373.047 95.656 372.959 95.4597 372.85C89.9597 370.27 66.3597 352.45 62.5997 344.94C59.5997 338.94 77.3897 306.1 83.5997 300.47C87.7297 296.74 95.3897 295.27 95.3897 295.27C95.3897 295.27 117.01 232.87 130.34 219.81C133.69 216.53 191.59 215.25 201.93 219.97C206.36 221.97 217.13 232.97 217.43 234.97C217.68 237.86 196.09 367.36 195 368.79Z" fill="#454A6A"/>
<path d="M195.64 368.79C194.53 370.2 101.17 374.39 96.7196 373.11C96.505 373.043 96.2974 372.956 96.0996 372.85C105.1 348.66 147.1 235.16 148.3 234.43C149.5 233.7 204.82 234.03 218.07 234.99C218.35 237.86 196.76 367.36 195.64 368.79Z" fill="#263238"/>
<path d="M161.349 224.41C160.419 223.53 159.799 210.85 161.519 208.32C163.439 205.49 185.639 206.89 186.949 209.32C188.259 211.75 188.889 224.41 188.219 224.87C187.549 225.33 183.849 225.76 183.349 224.95C182.849 224.14 182.879 213.66 182.489 213.1C182.099 212.54 166.549 211.54 166.009 212.34C165.469 213.14 166.779 223.74 166.159 224.2C165.539 224.66 162.259 225.27 161.349 224.41Z" fill="#454A6A"/>
<path d="M115.502 282.024L108.647 278.812L104.951 286.699L111.806 289.911L115.502 282.024Z" fill="#DBDBDB"/>
<path d="M115.17 288.369L103.996 283.133L99.778 292.133L110.952 297.37L115.17 288.369Z" fill="#C7C7C7"/>
<path d="M113.409 312.12L94.0991 353.32L67.5391 340.86L86.8391 299.67C90.6691 291.52 98.7391 287.67 106.839 291.45C114.939 295.23 117.229 304 113.409 312.12Z" fill="#7C89AB"/>
<path opacity="0.1" d="M113.409 312.12L94.0991 353.32L67.5391 340.86L86.8391 299.67C90.6691 291.52 98.7391 287.67 106.839 291.45C114.939 295.23 117.229 304 113.409 312.12Z" fill="black"/>
<path d="M104 293.86C103.934 293.996 103.842 294.117 103.73 294.218C103.617 294.318 103.486 294.396 103.343 294.445C103.201 294.495 103.05 294.516 102.899 294.507C102.748 294.499 102.601 294.461 102.465 294.395C102.329 294.329 102.207 294.237 102.107 294.125C102.006 294.012 101.929 293.881 101.879 293.738C101.83 293.596 101.809 293.445 101.817 293.294C101.826 293.143 101.864 292.996 101.93 292.86C102.062 292.585 102.299 292.375 102.587 292.274C102.874 292.174 103.19 292.192 103.465 292.325C103.739 292.458 103.95 292.694 104.05 292.982C104.151 293.269 104.132 293.585 104 293.86Z" fill="white"/>
<path d="M112.85 309.35C112.754 309.554 112.599 309.724 112.406 309.84C112.213 309.956 111.99 310.013 111.765 310.002C111.54 309.992 111.324 309.915 111.142 309.781C110.961 309.647 110.823 309.463 110.747 309.251C110.67 309.039 110.658 308.81 110.712 308.591C110.766 308.372 110.883 308.175 111.049 308.022C111.215 307.87 111.423 307.771 111.645 307.737C111.868 307.702 112.096 307.735 112.3 307.83C112.436 307.893 112.558 307.983 112.66 308.094C112.761 308.204 112.84 308.334 112.891 308.476C112.942 308.617 112.964 308.767 112.957 308.917C112.95 309.067 112.914 309.214 112.85 309.35Z" fill="white"/>
<path d="M100.609 304.88C100.545 305.015 100.455 305.136 100.343 305.237C100.232 305.337 100.102 305.415 99.9612 305.465C99.82 305.515 99.6704 305.537 99.5208 305.529C99.3712 305.521 99.2245 305.484 99.0893 305.42C98.954 305.354 98.833 305.263 98.7332 305.15C98.6333 305.038 98.5566 304.907 98.5074 304.765C98.4582 304.623 98.4374 304.472 98.4463 304.322C98.4552 304.172 98.4936 304.025 98.5593 303.89C98.6249 303.755 98.7166 303.634 98.829 303.534C98.9415 303.434 99.0724 303.357 99.2145 303.308C99.3566 303.259 99.507 303.238 99.6571 303.247C99.8072 303.256 99.954 303.294 100.089 303.36C100.357 303.495 100.562 303.73 100.659 304.014C100.756 304.298 100.738 304.609 100.609 304.88Z" fill="white"/>
<path d="M96.9997 315.25C96.9374 315.387 96.8483 315.51 96.7377 315.612C96.627 315.715 96.4971 315.794 96.3555 315.845C96.2139 315.896 96.0635 315.919 95.9131 315.911C95.7627 315.903 95.6153 315.865 95.4797 315.8C95.276 315.704 95.1054 315.55 94.9893 315.357C94.8732 315.164 94.8169 314.941 94.8274 314.716C94.838 314.491 94.9149 314.274 95.0485 314.092C95.1822 313.911 95.3665 313.774 95.5783 313.697C95.7901 313.62 96.0198 313.608 96.2385 313.662C96.4572 313.716 96.655 313.833 96.8071 313.999C96.9592 314.165 97.0586 314.373 97.0929 314.595C97.1272 314.818 97.0948 315.046 96.9997 315.25Z" fill="white"/>
<path d="M81.4599 320.57C81.3975 320.707 81.3085 320.83 81.1978 320.932C81.0872 321.034 80.9573 321.114 80.8156 321.165C80.674 321.216 80.5236 321.238 80.3732 321.231C80.2228 321.223 80.0755 321.185 79.9399 321.12C79.8046 321.054 79.6836 320.962 79.5838 320.85C79.4839 320.738 79.4072 320.607 79.358 320.465C79.3088 320.322 79.288 320.172 79.2969 320.022C79.3058 319.872 79.3442 319.725 79.4099 319.59C79.4755 319.455 79.5672 319.334 79.6796 319.234C79.792 319.134 79.923 319.057 80.0651 319.008C80.2072 318.959 80.3575 318.938 80.5076 318.947C80.6577 318.956 80.8046 318.994 80.9399 319.06C81.074 319.124 81.1941 319.214 81.293 319.325C81.392 319.436 81.4679 319.565 81.5163 319.706C81.5647 319.846 81.5846 319.995 81.5749 320.143C81.5652 320.292 81.5261 320.437 81.4599 320.57Z" fill="white"/>
<path d="M84.7391 310.89C84.6735 311.026 84.5817 311.147 84.469 311.248C84.3563 311.348 84.225 311.426 84.0824 311.475C83.9399 311.525 83.789 311.546 83.6383 311.537C83.4876 311.529 83.3401 311.491 83.2041 311.425C83.0682 311.359 82.9466 311.267 82.8461 311.155C82.7457 311.042 82.6684 310.911 82.6187 310.768C82.569 310.626 82.5479 310.475 82.5566 310.324C82.5652 310.173 82.6035 310.026 82.6691 309.89C82.8017 309.615 83.038 309.405 83.3258 309.305C83.6137 309.204 83.9296 309.222 84.2041 309.355C84.4786 309.488 84.6892 309.724 84.7895 310.012C84.8899 310.299 84.8717 310.615 84.7391 310.89Z" fill="white"/>
<path d="M89.5692 301.26C89.5035 301.396 89.4118 301.517 89.2991 301.618C89.1864 301.718 89.055 301.796 88.9125 301.845C88.77 301.895 88.619 301.916 88.4683 301.907C88.3177 301.899 88.1701 301.86 88.0342 301.795C87.8983 301.729 87.7766 301.637 87.6762 301.525C87.5758 301.412 87.4985 301.281 87.4488 301.138C87.3991 300.996 87.378 300.845 87.3867 300.694C87.3953 300.543 87.4335 300.396 87.4992 300.26C87.6318 299.985 87.868 299.775 88.1559 299.674C88.4438 299.574 88.7597 299.592 89.0342 299.725C89.3087 299.857 89.5193 300.094 89.6196 300.381C89.7199 300.669 89.7018 300.985 89.5692 301.26Z" fill="white"/>
<path d="M96.8496 297.4C96.7549 297.605 96.6015 297.777 96.4088 297.895C96.2161 298.012 95.9928 298.07 95.7672 298.061C95.5416 298.051 95.3239 297.975 95.1417 297.842C94.9594 297.708 94.8209 297.524 94.7436 297.312C94.6664 297.1 94.6538 296.869 94.7076 296.65C94.7614 296.431 94.8791 296.233 95.0458 296.08C95.2124 295.928 95.4206 295.828 95.6438 295.795C95.867 295.761 96.0953 295.794 96.2996 295.89C96.5721 296.018 96.7829 296.249 96.886 296.532C96.989 296.815 96.9759 297.127 96.8496 297.4Z" fill="white"/>
<path d="M93.0792 308.15C92.9831 308.354 92.8288 308.524 92.6358 308.64C92.4429 308.756 92.2198 308.813 91.9948 308.802C91.7699 308.792 91.5531 308.715 91.3718 308.581C91.1905 308.447 91.0529 308.263 90.9762 308.051C90.8996 307.84 90.8874 307.61 90.9412 307.391C90.995 307.172 91.1124 306.975 91.2785 306.823C91.4446 306.67 91.6521 306.571 91.8747 306.537C92.0973 306.502 92.325 306.535 92.5292 306.63C92.6654 306.693 92.7877 306.783 92.8891 306.894C92.9906 307.005 93.0691 307.134 93.1202 307.276C93.1713 307.417 93.194 307.567 93.187 307.717C93.1799 307.867 93.1433 308.014 93.0792 308.15Z" fill="white"/>
<path d="M108.44 301.73C108.343 301.934 108.189 302.104 107.996 302.22C107.803 302.336 107.58 302.393 107.355 302.382C107.13 302.372 106.913 302.295 106.732 302.161C106.551 302.028 106.413 301.843 106.337 301.631C106.26 301.42 106.248 301.19 106.302 300.971C106.355 300.753 106.473 300.555 106.639 300.403C106.805 300.251 107.012 300.151 107.235 300.117C107.458 300.083 107.685 300.115 107.89 300.21C108.026 300.273 108.148 300.363 108.249 300.474C108.351 300.585 108.429 300.714 108.481 300.856C108.532 300.997 108.554 301.147 108.547 301.297C108.54 301.447 108.504 301.594 108.44 301.73Z" fill="white"/>
<path d="M104.999 312.37C104.903 312.574 104.749 312.744 104.556 312.86C104.363 312.976 104.14 313.033 103.915 313.022C103.69 313.012 103.473 312.935 103.292 312.801C103.11 312.667 102.973 312.483 102.896 312.271C102.82 312.06 102.807 311.83 102.861 311.611C102.915 311.392 103.032 311.195 103.198 311.042C103.365 310.89 103.572 310.791 103.795 310.757C104.017 310.722 104.245 310.755 104.449 310.85C104.585 310.913 104.708 311.003 104.809 311.114C104.91 311.225 104.989 311.354 105.04 311.496C105.091 311.637 105.114 311.787 105.107 311.937C105.1 312.087 105.063 312.234 104.999 312.37Z" fill="white"/>
<path d="M89.1193 318C89.0232 318.204 88.8689 318.374 88.6759 318.49C88.4829 318.606 88.2598 318.663 88.0349 318.652C87.8099 318.642 87.5931 318.565 87.4118 318.431C87.2305 318.298 87.0929 318.113 87.0163 317.901C86.9396 317.69 86.9274 317.46 86.9812 317.241C87.035 317.023 87.1524 316.825 87.3185 316.673C87.4847 316.521 87.6921 316.421 87.9147 316.387C88.1373 316.353 88.3651 316.385 88.5692 316.48C88.7054 316.543 88.8278 316.633 88.9292 316.744C89.0306 316.855 89.1091 316.984 89.1602 317.126C89.2113 317.267 89.234 317.417 89.227 317.567C89.22 317.717 89.1833 317.864 89.1193 318Z" fill="white"/>
<path d="M96.4396 331.44C96.3435 331.644 96.1892 331.814 95.9962 331.93C95.8032 332.046 95.5802 332.103 95.3552 332.092C95.1302 332.082 94.9134 332.005 94.7321 331.871C94.5508 331.737 94.4132 331.553 94.3366 331.341C94.2599 331.13 94.2478 330.9 94.3016 330.681C94.3554 330.462 94.4727 330.265 94.6389 330.113C94.805 329.96 95.0124 329.861 95.235 329.827C95.4576 329.792 95.6854 329.825 95.8896 329.92C96.0257 329.983 96.1481 330.073 96.2495 330.184C96.3509 330.295 96.4294 330.424 96.4805 330.566C96.5317 330.707 96.5543 330.857 96.5473 331.007C96.5403 331.157 96.5037 331.304 96.4396 331.44Z" fill="white"/>
<path d="M92.63 339.15C92.5339 339.354 92.3796 339.524 92.1866 339.64C91.9936 339.756 91.7706 339.813 91.5456 339.802C91.3206 339.792 91.1038 339.715 90.9226 339.581C90.7413 339.447 90.6036 339.263 90.527 339.051C90.4504 338.84 90.4382 338.61 90.492 338.391C90.5458 338.172 90.6631 337.975 90.8293 337.823C90.9954 337.67 91.2029 337.571 91.4255 337.537C91.648 337.502 91.8758 337.535 92.08 337.63C92.2162 337.693 92.3385 337.783 92.4399 337.894C92.5413 338.005 92.6199 338.134 92.671 338.276C92.7221 338.417 92.7448 338.567 92.7377 338.717C92.7307 338.867 92.6941 339.014 92.63 339.15Z" fill="white"/>
<path d="M85.8191 326.69C85.7557 326.826 85.666 326.948 85.5552 327.05C85.4444 327.151 85.3146 327.23 85.1734 327.281C85.0321 327.332 84.8822 327.355 84.7321 327.348C84.5821 327.341 84.4349 327.304 84.2991 327.24C84.0954 327.144 83.9247 326.989 83.8086 326.796C83.6925 326.603 83.6362 326.38 83.6468 326.155C83.6573 325.931 83.7342 325.714 83.8679 325.532C84.0015 325.351 84.1858 325.214 84.3976 325.137C84.6094 325.06 84.8391 325.048 85.0578 325.102C85.2765 325.156 85.4744 325.273 85.6264 325.439C85.7785 325.605 85.8779 325.813 85.9122 326.035C85.9465 326.258 85.9141 326.486 85.8191 326.69Z" fill="white"/>
<path d="M75.0897 336.46C75.0241 336.596 74.9323 336.718 74.8196 336.818C74.7069 336.918 74.5756 336.996 74.433 337.045C74.2905 337.095 74.1396 337.116 73.9889 337.108C73.8382 337.099 73.6906 337.061 73.5547 336.995C73.4188 336.929 73.2971 336.838 73.1967 336.725C73.0963 336.612 73.019 336.481 72.9693 336.338C72.9196 336.196 72.8985 336.045 72.9072 335.894C72.9158 335.743 72.9541 335.596 73.0197 335.46C73.1523 335.185 73.3886 334.975 73.6764 334.875C73.9643 334.774 74.2802 334.792 74.5547 334.925C74.8292 335.058 75.0398 335.294 75.1401 335.582C75.2405 335.87 75.2223 336.185 75.0897 336.46Z" fill="white"/>
<path d="M93.3595 324.54C93.2634 324.744 93.1091 324.914 92.9161 325.03C92.7231 325.147 92.5001 325.203 92.2751 325.192C92.0501 325.182 91.8333 325.105 91.6521 324.971C91.4708 324.838 91.3331 324.653 91.2565 324.441C91.1799 324.23 91.1677 324 91.2215 323.781C91.2753 323.563 91.3926 323.365 91.5588 323.213C91.7249 323.061 91.9324 322.961 92.1549 322.927C92.3775 322.893 92.6053 322.925 92.8095 323.02C92.9457 323.083 93.068 323.173 93.1694 323.284C93.2708 323.395 93.3493 323.524 93.4005 323.666C93.4516 323.807 93.4743 323.957 93.4672 324.107C93.4602 324.257 93.4236 324.404 93.3595 324.54Z" fill="white"/>
<path d="M89.5499 333C89.4538 333.204 89.2995 333.374 89.1065 333.49C88.9136 333.606 88.6905 333.663 88.4655 333.652C88.2406 333.642 88.0238 333.565 87.8425 333.431C87.6612 333.298 87.5236 333.113 87.4469 332.901C87.3703 332.69 87.3581 332.46 87.4119 332.241C87.4657 332.023 87.5831 331.825 87.7492 331.673C87.9153 331.521 88.1228 331.421 88.3454 331.387C88.568 331.353 88.7957 331.385 88.9999 331.48C89.1361 331.543 89.2584 331.633 89.3598 331.744C89.4613 331.855 89.5398 331.984 89.5909 332.126C89.642 332.267 89.6647 332.417 89.6577 332.567C89.6506 332.717 89.614 332.864 89.5499 333Z" fill="white"/>
<path d="M85.6193 341.39C85.5232 341.594 85.3689 341.764 85.1759 341.88C84.9829 341.996 84.7598 342.053 84.5349 342.042C84.3099 342.032 84.0931 341.955 83.9118 341.821C83.7305 341.687 83.5929 341.503 83.5163 341.291C83.4396 341.08 83.4274 340.85 83.4812 340.631C83.535 340.412 83.6524 340.215 83.8185 340.063C83.9847 339.91 84.1921 339.811 84.4147 339.777C84.6373 339.742 84.8651 339.775 85.0692 339.87C85.2054 339.933 85.3278 340.023 85.4292 340.134C85.5306 340.245 85.6091 340.374 85.6602 340.516C85.7113 340.657 85.734 340.807 85.727 340.957C85.72 341.107 85.6833 341.254 85.6193 341.39Z" fill="white"/>
<path d="M89.0698 347.74C88.9398 348.013 88.7073 348.224 88.4228 348.327C88.1382 348.43 87.8246 348.417 87.5498 348.29C87.4139 348.224 87.2923 348.132 87.1918 348.02C87.0914 347.907 87.0141 347.776 86.9644 347.633C86.9147 347.491 86.8936 347.34 86.9023 347.189C86.9109 347.038 86.9492 346.891 87.0148 346.755C87.0805 346.619 87.1723 346.497 87.285 346.397C87.3976 346.296 87.529 346.219 87.6715 346.169C87.8141 346.12 87.965 346.099 88.1157 346.107C88.2664 346.116 88.4139 346.154 88.5498 346.22C88.8177 346.355 89.0221 346.59 89.1193 346.874C89.2164 347.158 89.1987 347.469 89.0698 347.74Z" fill="white"/>
<path d="M78.6591 328.51C78.5265 328.784 78.2902 328.995 78.0024 329.095C77.7145 329.196 77.3986 329.177 77.1241 329.045C76.8496 328.912 76.639 328.676 76.5386 328.388C76.4383 328.1 76.4564 327.784 76.5891 327.51C76.6547 327.374 76.7465 327.252 76.8592 327.152C76.9719 327.051 77.1032 326.974 77.2458 326.924C77.3883 326.875 77.5392 326.854 77.6899 326.862C77.8406 326.871 77.9881 326.909 78.1241 326.975C78.26 327.04 78.3816 327.132 78.4821 327.245C78.5825 327.358 78.6598 327.489 78.7095 327.631C78.7591 327.774 78.7803 327.925 78.7716 328.076C78.763 328.226 78.7247 328.374 78.6591 328.51Z" fill="white"/>
<path d="M82.0899 334.66C81.9938 334.864 81.8396 335.034 81.6466 335.15C81.4536 335.266 81.2305 335.323 81.0056 335.312C80.7806 335.302 80.5638 335.225 80.3825 335.091C80.2012 334.957 80.0636 334.773 79.987 334.561C79.9103 334.35 79.8981 334.12 79.9519 333.901C80.0057 333.682 80.1231 333.485 80.2892 333.332C80.4554 333.18 80.6628 333.081 80.8854 333.047C81.108 333.012 81.3358 333.045 81.54 333.14C81.6761 333.203 81.7985 333.293 81.8999 333.404C82.0013 333.515 82.0798 333.644 82.1309 333.786C82.182 333.927 82.2047 334.077 82.1977 334.227C82.1907 334.377 82.154 334.524 82.0899 334.66Z" fill="white"/>
<path d="M95.8097 346.17C95.7136 346.374 95.5593 346.544 95.3663 346.66C95.1733 346.776 94.9503 346.833 94.7253 346.822C94.5003 346.812 94.2835 346.735 94.1022 346.601C93.921 346.467 93.7833 346.283 93.7067 346.071C93.6301 345.86 93.6179 345.63 93.6717 345.411C93.7255 345.192 93.8428 344.995 94.009 344.843C94.1751 344.69 94.3826 344.591 94.6051 344.557C94.8277 344.522 95.0555 344.555 95.2597 344.65C95.5329 344.78 95.7438 345.012 95.8468 345.297C95.9497 345.582 95.9364 345.895 95.8097 346.17Z" fill="white"/>
<path d="M78.5099 342.89C78.4138 343.094 78.2595 343.264 78.0665 343.38C77.8735 343.496 77.6505 343.553 77.4255 343.542C77.2005 343.532 76.9837 343.455 76.8024 343.321C76.6212 343.187 76.4835 343.003 76.4069 342.791C76.3303 342.58 76.3181 342.35 76.3719 342.131C76.4257 341.912 76.543 341.715 76.7092 341.563C76.8753 341.41 77.0827 341.311 77.3053 341.277C77.5279 341.242 77.7557 341.275 77.9599 341.37C78.0961 341.433 78.2184 341.523 78.3198 341.634C78.4212 341.745 78.4997 341.874 78.5509 342.016C78.602 342.157 78.6247 342.307 78.6176 342.457C78.6106 342.607 78.574 342.754 78.5099 342.89Z" fill="white"/>
<path d="M103.699 329.74C103.603 329.944 103.449 330.114 103.256 330.23C103.063 330.347 102.84 330.403 102.615 330.392C102.39 330.382 102.173 330.305 101.992 330.171C101.811 330.038 101.673 329.853 101.596 329.641C101.52 329.43 101.508 329.2 101.561 328.981C101.615 328.763 101.732 328.565 101.899 328.413C102.065 328.261 102.272 328.161 102.495 328.127C102.717 328.093 102.945 328.125 103.149 328.22C103.286 328.283 103.408 328.373 103.509 328.484C103.611 328.595 103.689 328.724 103.74 328.866C103.791 329.007 103.814 329.157 103.807 329.307C103.8 329.457 103.763 329.604 103.699 329.74Z" fill="white"/>
<path d="M99.8995 337.86C99.8034 338.064 99.6491 338.234 99.4562 338.35C99.2632 338.466 99.0401 338.523 98.8152 338.512C98.5902 338.502 98.3734 338.425 98.1921 338.291C98.0108 338.157 97.8732 337.973 97.7965 337.761C97.7199 337.55 97.7077 337.32 97.7615 337.101C97.8153 336.882 97.9327 336.685 98.0988 336.532C98.265 336.38 98.4724 336.281 98.695 336.247C98.9176 336.212 99.1453 336.245 99.3495 336.34C99.4857 336.403 99.608 336.493 99.7094 336.604C99.8109 336.715 99.8894 336.844 99.9405 336.986C99.9916 337.127 100.014 337.277 100.007 337.427C100 337.577 99.9636 337.724 99.8995 337.86Z" fill="white"/>
<path d="M100.63 323.06C100.534 323.263 100.38 323.434 100.187 323.55C99.9936 323.666 99.7706 323.723 99.5456 323.712C99.3206 323.702 99.1038 323.625 98.9226 323.491C98.7413 323.357 98.6036 323.173 98.527 322.961C98.4504 322.749 98.4382 322.52 98.492 322.301C98.5458 322.082 98.6631 321.884 98.8293 321.732C98.9954 321.58 99.2029 321.481 99.4255 321.447C99.648 321.412 99.8758 321.445 100.08 321.54C100.216 321.603 100.338 321.693 100.44 321.804C100.541 321.914 100.62 322.044 100.671 322.185C100.722 322.327 100.745 322.477 100.738 322.627C100.731 322.777 100.694 322.924 100.63 323.06Z" fill="white"/>
<path d="M108.65 320.53C108.553 320.733 108.399 320.904 108.206 321.02C108.013 321.136 107.79 321.193 107.565 321.182C107.34 321.172 107.123 321.095 106.942 320.961C106.761 320.827 106.623 320.643 106.547 320.431C106.47 320.219 106.458 319.99 106.512 319.771C106.565 319.552 106.683 319.354 106.849 319.202C107.015 319.05 107.222 318.951 107.445 318.917C107.668 318.882 107.895 318.915 108.1 319.01C108.236 319.073 108.358 319.163 108.459 319.274C108.561 319.384 108.639 319.514 108.691 319.655C108.742 319.797 108.764 319.947 108.757 320.097C108.75 320.247 108.714 320.394 108.65 320.53Z" fill="white"/>
<path d="M64.4298 341.45C66.6698 352.45 91.1098 364.31 92.7798 364.26C94.4498 364.21 110.67 324.06 110.67 324.06C110.67 324.06 90.8998 317.56 81.9998 306C81.9998 306 63.7298 338 64.4298 341.45Z" fill="#373D60"/>
<path d="M253.089 432.6H158.499C152.739 410.6 147.449 391.19 144.079 378.93C141.959 371.22 140.599 366.33 140.339 365.41C140.325 365.356 140.308 365.302 140.289 365.25H238.659L241.659 379.04C242.849 384.62 244.359 391.66 246.099 399.71C246.239 400.41 246.399 401.12 246.549 401.86C248.529 411.08 250.759 421.53 253.089 432.6Z" fill="#373D60"/>
<path d="M172.84 432.6H171.06C166.22 414.766 161.497 396.9 156.89 379L156.51 377.49C156.42 377.08 157.03 376.89 157.15 377.3C157.32 377.87 157.49 378.43 157.65 379C162.87 396.82 167.89 414.7 172.84 432.6Z" fill="#263238"/>
<path d="M230.999 365.41C230.228 370.085 229.105 374.694 227.639 379.2C226.539 382.78 225.209 386.65 223.709 390.64C223.389 391.55 223.029 392.43 222.709 393.33C217.939 405.48 211.709 417.86 205.269 423.74H205.219C204.464 424.462 203.64 425.108 202.759 425.67L197.279 429.06C197.285 429.086 197.285 429.114 197.279 429.14C197.279 429.47 197.029 430.66 196.719 432.58H104.389C102.029 411.2 106.949 391.2 111.239 378.66C112.741 374.127 114.531 369.694 116.599 365.39L230.999 365.41Z" fill="#373D60"/>
<path d="M220 418.53C214.198 421.716 208.222 424.574 202.1 427.09C200.47 427.79 198.84 428.48 197.18 429.15C197.08 429.15 196.98 429.24 196.88 429.27C195.453 429.863 194.023 430.433 192.59 430.98C191.19 431.52 189.8 432.08 188.38 432.6H185.26C187.41 431.52 189.66 430.6 191.85 429.6C194.89 428.267 197.94 426.933 201 425.6C202.39 425 203.78 424.39 205.16 423.77H205.21C209.98 421.65 214.73 419.53 219.64 417.77C220.13 417.53 220.45 418.27 220 418.53Z" fill="#263238"/>
<path d="M197.229 429.22C197.229 429.94 197.169 431.13 197.029 432.6H196.029C196.349 431.22 196.639 430.09 196.919 429.27C196.916 429.24 196.916 429.21 196.919 429.18C196.969 429.05 197.149 429.04 197.189 429.18C197.189 429.18 197.229 429.19 197.229 429.22Z" fill="#263238"/>
<path d="M125.529 371.16C124.279 373.66 123.149 376.16 122.099 378.78C115.731 394.439 113.326 411.428 115.099 428.24C115.269 429.7 115.479 431.15 115.699 432.6H114.099C113.468 428.377 113.1 424.119 112.999 419.85C112.669 405.73 115.42 391.708 121.059 378.76C122.239 376.07 123.549 373.43 124.979 370.86C124.999 370.824 125.026 370.792 125.058 370.766C125.09 370.74 125.126 370.721 125.166 370.709C125.205 370.698 125.247 370.694 125.288 370.698C125.328 370.703 125.368 370.715 125.404 370.735C125.44 370.754 125.472 370.781 125.498 370.813C125.524 370.845 125.543 370.882 125.555 370.921C125.566 370.961 125.57 371.002 125.566 371.043C125.561 371.084 125.549 371.124 125.529 371.16Z" fill="#263238"/>
<path d="M194.909 403.48C194.999 399.92 195.249 396.37 195.429 392.82C195.839 384.44 196.169 376.01 196.949 367.66C196.949 367.591 196.977 367.525 197.025 367.476C197.074 367.427 197.14 367.4 197.209 367.4C197.278 367.4 197.344 367.427 197.393 367.476C197.442 367.525 197.469 367.591 197.469 367.66C197.569 374.14 197.319 380.66 197.189 387.13C197.119 390.37 197.029 393.62 196.939 396.86C196.764 399.954 196.744 403.054 196.879 406.15C197.049 408.49 197.559 413.03 200.609 413.31C203.489 413.58 205.759 410.48 206.479 408.21C208.299 402.43 208.949 396.21 209.539 390.21C209.889 386.66 210.299 372.21 210.109 368.59C210.109 368.36 210.449 368.37 210.469 368.59C210.669 372.25 211.169 375.89 211.289 379.59C211.409 383.29 211.419 386.91 211.189 390.59C210.959 394.09 210.669 397.59 210.139 401.08C209.783 404.252 209.027 407.367 207.889 410.35C206.829 412.81 205.009 415.07 202.249 415.61C201.918 415.666 201.584 415.699 201.249 415.71C201.249 416.46 201.109 417.22 201.059 417.96C200.979 419.14 200.829 420.3 200.669 421.47C200.508 422.618 200.27 423.753 199.959 424.87C199.708 425.999 199.304 427.089 198.759 428.11C198.738 428.142 198.708 428.166 198.672 428.179C198.637 428.193 198.598 428.194 198.562 428.184C198.525 428.174 198.492 428.153 198.469 428.124C198.445 428.094 198.431 428.058 198.429 428.02C198.402 426.896 198.496 425.773 198.709 424.67C198.869 423.53 199.029 422.37 199.259 421.25C199.489 420.13 199.699 419.02 199.929 417.91C200.079 417.17 200.179 416.4 200.319 415.65C199.428 415.493 198.59 415.118 197.88 414.558C197.169 413.997 196.609 413.27 196.249 412.44C194.939 409.67 194.839 406.44 194.909 403.48Z" fill="#263238"/>
<path d="M193.209 242.7C205.139 257.65 251.919 310.7 277.919 315.65C295.429 319 351.679 290.37 363.999 280C368.999 275.76 340.869 233.79 333.999 235.48C326.559 237.31 286.079 264.22 280.819 263.91C275.559 263.6 234.129 240.31 208.999 230C193.899 223.76 186.489 234.29 193.209 242.7Z" fill="#AD6359"/>
<path d="M348.549 290C359.369 285.83 392.179 262.82 397.629 256.84C403.079 250.86 417.519 232.55 413.359 227.91C409.199 223.27 404.559 228.3 404.559 228.3C404.559 228.3 410.029 218.85 404.829 215.3C400.679 212.47 393.749 219.2 393.749 219.2C393.749 219.2 399.199 208.53 393.589 205.68C388.479 203.08 382.849 212.22 382.849 212.22C382.849 212.22 386.499 202.83 381.099 201.28C374.599 199.4 368.269 215.65 361.759 221.8C360.279 223.19 316.609 244.62 316.609 244.62L348.549 290Z" fill="#AD6359"/>
<path d="M382.609 211.75C376.609 223.44 373.809 228.1 363.609 235.58C363.409 235.72 363.609 236.05 363.809 235.92C374.429 229.5 378.169 224.21 383.169 211.92C383.439 211.35 382.889 211.21 382.609 211.75Z" fill="#263238"/>
<path d="M393.63 219.2C387.68 231.2 383.13 235.71 373.06 244.32C372.91 244.44 373.06 244.7 373.26 244.59C383.85 236.96 389.69 232.05 394.06 219.3C394.26 218.73 393.9 218.66 393.63 219.2Z" fill="#263238"/>
<path d="M404.059 228.73C397.459 239.91 392.849 245.41 381.989 252.51C381.933 252.542 381.893 252.594 381.876 252.656C381.859 252.718 381.867 252.784 381.899 252.84C381.931 252.896 381.984 252.936 382.045 252.953C382.107 252.97 382.173 252.962 382.229 252.93C393.999 246.76 399.819 239.93 404.379 228.93C404.689 228.22 404.469 228 404.059 228.73Z" fill="#263238"/>
<path d="M447.629 261.74C418.919 270.12 390.629 278.51 363.129 286.89C346.659 249.89 344.229 212.89 332.949 175.89C361.699 167.5 389.949 159.12 417.559 150.73C433.999 187.72 436.379 224.73 447.629 261.74Z" fill="white"/>
<path d="M447.629 261.74C433.316 265.993 419.136 270.24 405.089 274.48C391.042 278.72 377.099 282.956 363.259 287.19L362.979 287.28L362.839 286.98C346.299 249.98 343.839 212.98 332.469 175.98C332.419 175.82 332.379 175.66 332.329 175.5L332.799 175.36C361.549 167.02 389.799 158.68 417.409 150.36L417.739 150.26L417.889 150.6C426.089 169.15 430.759 187.7 434.789 206.25C438.819 224.8 442.089 243.25 447.629 261.74ZM447.629 261.74C441.919 243.23 438.419 224.74 434.279 206.2C430.139 187.66 425.459 169.27 417.279 150.81L417.749 151.05C390.179 159.48 361.889 167.92 333.139 176.35L333.469 175.73C344.699 212.73 347.069 249.78 363.469 286.8L363.059 286.59C376.819 282.443 390.749 278.296 404.849 274.15C418.949 270.003 433.209 265.866 447.629 261.74Z" fill="#263238"/>
<path d="M346.539 192C362.759 187.333 378.882 182.667 394.909 178C395.189 178.95 395.469 179.9 395.739 180.85C379.679 185.517 363.509 190.183 347.229 194.85C346.999 193.94 346.769 193 346.539 192Z" fill="#DBDBDB"/>
<path d="M348.26 199.24C364.56 194.573 380.786 189.907 396.94 185.24L397.69 188.09C381.516 192.757 365.256 197.423 348.91 202.09C348.7 201.14 348.48 200.19 348.26 199.24Z" fill="#DBDBDB"/>
<path d="M349.88 206.44C366.24 201.773 382.543 197.107 398.79 192.44C399.02 193.44 399.26 194.34 399.48 195.29C383.22 199.957 366.887 204.623 350.48 209.29C350.3 208.34 350.09 207.39 349.88 206.44Z" fill="#DBDBDB"/>
<path d="M351.439 213.63C375.439 206.803 399.366 199.973 423.219 193.14L423.909 196C400.069 202.82 376.059 209.65 352.049 216.48C351.839 215.53 351.639 214.58 351.439 213.63Z" fill="#DBDBDB"/>
<path d="M353 220.83C377 213.997 400.983 207.167 424.95 200.34C425.17 201.29 425.39 202.24 425.6 203.19C401.66 210.023 377.66 216.853 353.6 223.68C353.37 222.73 353.17 221.78 353 220.83Z" fill="#DBDBDB"/>
<path d="M354.51 228L426.51 207.52C426.72 208.52 426.93 209.42 427.13 210.37C403.13 217.2 379.13 224.02 355.13 230.85C354.92 229.92 354.72 229 354.51 228Z" fill="#DBDBDB"/>
<path d="M356.1 235.22C380.026 228.387 404.026 221.557 428.1 214.73C428.31 215.73 428.51 216.63 428.71 217.58C404.71 224.407 380.73 231.237 356.77 238.07C356.53 237.12 356.31 236.17 356.1 235.22Z" fill="#DBDBDB"/>
<path d="M357.77 242.41C381.6 235.58 405.6 228.76 429.61 221.93C429.82 222.88 430.02 223.83 430.22 224.78C406.22 231.613 382.303 238.44 358.47 245.26C358.23 244.31 358 243.36 357.77 242.41Z" fill="#DBDBDB"/>
<path d="M359.569 249.61C383.269 242.777 407.133 235.947 431.159 229.12C431.369 230.07 431.569 231.02 431.779 231.97C407.819 238.803 384.003 245.633 360.329 252.46C360.069 251.51 359.819 250.56 359.569 249.61Z" fill="#DBDBDB"/>
<path d="M361.529 256.8C385.049 249.98 408.793 243.153 432.759 236.32C432.979 237.32 433.189 238.22 433.419 239.17C409.539 246 385.799 252.83 362.359 259.66C362.079 258.7 361.799 257.75 361.529 256.8Z" fill="#DBDBDB"/>
<path d="M363.68 264C387.013 257.173 410.603 250.343 434.45 243.51C434.68 244.51 434.91 245.41 435.15 246.36C411.39 253.193 387.873 260.023 364.6 266.85C364.29 265.9 364 265 363.68 264Z" fill="#DBDBDB"/>
<path d="M366.069 271.2C389.149 264.373 412.549 257.543 436.269 250.71C436.519 251.66 436.769 252.61 437.029 253.56C413.429 260.387 390.116 267.217 367.089 274.05L366.069 271.2Z" fill="#DBDBDB"/>
<path d="M403.169 192.9C402.099 185.13 400.789 177.36 399.039 169.59C404.509 175.16 409.739 180.73 414.829 186.3L413.329 187.67C409.769 183.75 406.139 179.83 402.399 175.91C403.489 181.46 404.399 187 405.149 192.55L403.169 192.9Z" fill="#7C89AB"/>
<path d="M401.739 188.86L400.579 187.27C404.139 184.603 407.666 181.936 411.159 179.27L412.359 180.86C408.859 183.54 405.319 186.206 401.739 188.86Z" fill="#7C89AB"/>
<path d="M398.62 166.54C396.975 167.759 395.516 169.21 394.29 170.85C391.873 174.172 390.609 178.193 390.69 182.3C390.707 184.292 391.143 186.258 391.97 188.07C392.821 189.818 394.058 191.351 395.588 192.551C397.117 193.751 398.899 194.589 400.8 195C404.62 195.75 408.71 194.38 412.13 192.12C415.632 190.028 418.286 186.771 419.63 182.92C420.261 181.031 420.458 179.024 420.205 177.048C419.952 175.072 419.257 173.179 418.17 171.51C416.973 169.859 415.426 168.494 413.64 167.51C411.856 166.478 409.871 165.841 407.82 165.64C405.782 165.434 403.725 165.718 401.82 166.47C399.929 167.249 398.187 168.349 396.67 169.72C397.372 168.963 398.127 168.258 398.93 167.61C399.766 166.988 400.66 166.449 401.6 166C403.532 165.061 405.663 164.608 407.81 164.68C410.066 164.79 412.273 165.383 414.28 166.418C416.288 167.453 418.051 168.906 419.45 170.68C420.79 172.513 421.653 174.65 421.96 176.9C422.276 179.121 422.102 181.384 421.45 183.53C419.992 187.841 417.055 191.497 413.16 193.85C411.277 195.091 409.212 196.033 407.04 196.64C404.86 197.26 402.565 197.359 400.34 196.93C398.168 196.472 396.146 195.475 394.46 194.03C392.791 192.61 391.453 190.842 390.54 188.85C388.937 184.722 388.962 180.14 390.61 176.03C392.117 172.044 394.944 168.695 398.62 166.54Z" fill="#7C89AB"/>
<path d="M409.589 174C408.442 172.427 407.272 170.857 406.079 169.29L407.649 168.13C408.849 169.697 410.029 171.267 411.189 172.84L409.589 174Z" fill="#7C89AB"/>
<path d="M407 173.51L405.81 171.87L410.31 168.63C410.72 169.18 411.12 169.73 411.53 170.27L407 173.51Z" fill="#7C89AB"/>
<path d="M316.609 244.63C316.609 244.63 327.239 233.74 332.019 228.33C336.799 222.92 348.219 205.75 354.419 206.16C361.419 206.62 356.359 224.71 347.889 234.43C347.889 234.43 359.139 252.37 351.449 262.1C349.779 264.2 337.659 270.86 334.649 270.24L316.609 244.63Z" fill="#AD6359"/>
<path d="M347.38 235.73C352.01 242.55 355.23 252.94 351.91 260.47C351.894 260.513 351.894 260.56 351.91 260.602C351.926 260.645 351.957 260.68 351.997 260.702C352.037 260.724 352.084 260.731 352.128 260.721C352.173 260.712 352.212 260.686 352.24 260.65C356.89 253.06 353.24 241 348.78 235.15C347.91 234 346.18 234 347.38 235.73Z" fill="#263238"/>
<path d="M316.609 244.63L348.549 290C348.643 292.881 347.853 295.721 346.285 298.14C344.718 300.558 342.447 302.439 339.779 303.53C330.249 307.7 290.829 321.92 275.219 316.65C259.609 311.38 215.079 273 195.869 247.49C176.659 221.98 205.049 227.05 210.459 229.49C215.869 231.93 279.379 261.86 281.639 261.81C283.899 261.76 298.639 250.55 305.639 247.07C312.639 243.59 316.609 244.63 316.609 244.63Z" fill="#7C89AB"/>
<path opacity="0.1" d="M297.999 316.3C288.999 317.95 280.669 318.49 275.239 316.65C259.619 311.37 215.089 273.01 195.879 247.48C194.659 245.87 193.639 244.37 192.779 243.01L297.999 316.3Z" fill="black"/>
<path d="M336.11 299.37C333.18 295.78 330.74 291.79 328.19 287.95C325.64 284.11 323.19 280.37 320.72 276.55C315.72 268.86 310.55 261.22 306.08 253.24C306.066 253.203 306.065 253.163 306.077 253.126C306.089 253.089 306.114 253.057 306.146 253.036C306.179 253.015 306.218 253.006 306.257 253.01C306.296 253.014 306.332 253.032 306.36 253.06C312.13 260.33 317.16 268.19 322.22 275.92C324.76 279.793 327.243 283.7 329.67 287.64C332.134 291.375 334.387 295.244 336.42 299.23C336.51 299.42 336.23 299.52 336.11 299.37Z" fill="#263238"/>
<g opacity="0.1">
<path d="M325.87 308.77L322.26 310C322.071 308.675 321.98 307.338 321.99 306C321.99 303.47 322.19 301 322.16 298.59C322.168 296.179 321.933 293.774 321.46 291.41C320.976 289.093 320.165 286.857 319.05 284.77C318.78 284.25 318.47 283.77 318.18 283.27C317.89 282.77 317.56 282.35 317.23 281.89C316.52 280.98 315.78 280.04 315.01 279.12L310.41 273.53C308.85 271.65 307.31 269.76 305.79 267.83C304.27 265.9 302.79 263.9 301.42 261.83C299.998 259.69 298.769 257.428 297.75 255.07C297.399 254.208 297.099 253.327 296.85 252.43C298.14 251.58 299.41 250.76 300.61 250C301.006 251.079 301.463 252.134 301.98 253.16C303.084 255.181 304.302 257.138 305.63 259.02C308.31 262.92 311.13 266.85 313.96 270.82C315.37 272.82 316.82 274.82 318.14 276.89C318.8 277.94 319.46 279 320.05 280.15C320.34 280.73 320.63 281.3 320.89 281.94C321.15 282.58 321.34 283.16 321.52 283.78C323 288.7 323.22 293.66 323.79 298.51C324.176 301.985 324.872 305.419 325.87 308.77Z" fill="black"/>
<path d="M313.25 312.68C312.25 312.96 311.31 313.23 310.32 313.49C309.12 309.35 309.05 305.27 308.96 301.24V295C308.96 294 308.96 292.95 308.88 291.94C308.858 290.961 308.761 289.984 308.59 289.02C308.554 288.802 308.497 288.587 308.42 288.38L308.17 287.7L307.87 287.04C307.76 286.82 307.63 286.61 307.52 286.39C307.012 285.528 306.408 284.726 305.72 284C304.282 282.54 302.65 281.284 300.87 280.27C299.98 279.73 299.06 279.27 298.13 278.78L295.32 277.35C293.308 276.413 291.493 275.103 289.97 273.49C289.592 273.039 289.258 272.553 288.97 272.04C288.82 271.78 288.69 271.5 288.56 271.23L288.25 270.43C287.89 269.375 287.619 268.291 287.44 267.19C287.1 265.061 286.973 262.904 287.06 260.75C287.06 260.12 287.12 259.49 287.17 258.86L289.17 257.54C289.17 258.61 289.17 259.67 289.26 260.73C289.342 262.744 289.569 264.749 289.94 266.73C290.133 267.681 290.394 268.616 290.72 269.53L290.98 270.19C291.08 270.38 291.15 270.58 291.26 270.78C291.469 271.173 291.706 271.551 291.97 271.91C293.192 273.45 294.619 274.815 296.21 275.97C297.84 277.22 299.61 278.35 301.36 279.5C303.168 280.6 304.89 281.837 306.51 283.2C307.341 283.908 308.101 284.695 308.78 285.55C309.121 285.989 309.439 286.446 309.73 286.92L310.14 287.65C310.275 287.918 310.392 288.196 310.49 288.48C310.838 289.534 311.082 290.619 311.22 291.72C311.39 292.78 311.48 293.84 311.57 294.89C311.74 296.99 311.84 299.07 311.98 301.13C312.12 303.19 312.27 305.25 312.47 307.27C312.607 309.089 312.868 310.896 313.25 312.68Z" fill="black"/>
</g>
<path d="M106.459 385.26C106.559 385.39 243.029 379.01 243.919 378.17C244.329 377.78 246.099 370.01 244.009 359.22C237.739 326.87 218.949 260.79 202.379 232.83C198.239 225.83 179.579 215.54 166.039 228.76C138.589 255.56 117.039 323.76 108.549 361.22C104.389 379.53 105.899 384.48 106.459 385.26Z" fill="#7C89AB"/>
<g opacity="0.1">
<path d="M243.4 356.13C242.99 356.13 242.58 356.13 242.18 356.19C238.3 356.561 234.447 357.165 230.64 358C222.79 359.6 214.8 361.4 206.75 363.19C202.75 364.08 198.69 365.02 194.54 365.7C192.46 366.03 190.37 366.36 188.2 366.52C187.1 366.59 186.02 366.67 184.84 366.65C183.66 366.63 182.66 366.54 181.57 366.41C172.92 365.48 165.05 362.55 157.1 360.24C149.15 357.93 140.95 356.35 133.65 356.38C131.85 356.38 129.91 356.53 127.96 356.71C126.01 356.89 124.06 357.18 122.09 357.47C118.16 358.1 114.19 358.89 110.23 359.75L108.8 360.07C109.28 357.97 109.8 355.77 110.37 353.5C113.802 352.366 117.294 351.421 120.83 350.67C122.91 350.217 125.023 349.857 127.17 349.59C128.25 349.46 129.33 349.35 130.42 349.29C131.552 349.215 132.688 349.215 133.82 349.29C138.238 349.59 142.567 350.68 146.6 352.51C150.54 354.15 154.22 356.09 158.02 357.66C161.773 359.266 165.68 360.486 169.68 361.3C173.613 362.076 177.637 362.288 181.63 361.93C182.63 361.86 183.63 361.71 184.54 361.58C185.45 361.45 186.37 361.21 187.31 360.99C189.21 360.48 191.15 359.99 193.08 359.37L204.85 355.88C208.79 354.69 212.77 353.53 216.78 352.44C220.79 351.35 224.87 350.38 229.04 349.61C233.218 348.817 237.458 348.396 241.71 348.35C242.33 351.07 242.89 353.68 243.4 356.13Z" fill="black"/>
<path d="M237.45 330.76C234.671 329.772 231.832 328.964 228.95 328.34C227.341 328.007 225.71 327.793 224.07 327.7H222.88C222.51 327.7 222.15 327.7 221.78 327.75C221.027 327.823 220.278 327.943 219.54 328.11C216.337 329.002 213.269 330.324 210.42 332.04C207.42 333.76 204.42 335.76 201.52 337.75C198.608 339.838 195.543 341.704 192.35 343.33C190.699 344.154 188.975 344.824 187.2 345.33C186.291 345.574 185.37 345.768 184.44 345.91L183 346C182.491 346.035 181.979 346.035 181.47 346C179.598 345.85 177.746 345.516 175.94 345C174.18 344.56 172.47 344 170.78 343.45C167.39 342.33 164.08 341.12 160.78 339.97C157.48 338.82 154.17 337.7 150.89 336.68C147.702 335.635 144.439 334.832 141.13 334.28C139.584 334.047 138.015 334.013 136.46 334.18C134.824 334.366 133.203 334.67 131.61 335.09C128.297 335.974 125.043 337.07 121.87 338.37C119.01 339.53 116.163 340.77 113.33 342.09C113.64 340.94 113.96 339.78 114.33 338.6C116.33 337.38 118.36 336.227 120.42 335.14C123.636 333.436 126.979 331.984 130.42 330.8C132.204 330.209 134.029 329.751 135.88 329.43C137.818 329.092 139.792 329.018 141.75 329.21C149.35 329.97 156.04 332.65 162.62 335.28L172.38 339.28C173.99 339.95 175.61 340.58 177.21 341.19C178.748 341.796 180.329 342.287 181.94 342.66C182.31 342.738 182.684 342.791 183.06 342.82L184.28 342.87H185.51C185.93 342.87 186.34 342.79 186.75 342.75C188.427 342.529 190.075 342.12 191.66 341.53C194.876 340.243 197.903 338.527 200.66 336.43C202.07 335.43 203.41 334.26 204.78 333.15L208.86 329.7C211.63 327.44 214.61 325.14 218.41 323.92C219.366 323.603 220.351 323.381 221.35 323.26C221.86 323.19 222.35 323.18 222.89 323.15H224.34C226.222 323.283 228.089 323.578 229.92 324.03C232.079 324.544 234.197 325.212 236.26 326.03L237.45 330.76Z" fill="black"/>
</g>
<path d="M151.709 232C107.159 250.89 72.5695 267.34 77.5895 284.46C79.5895 291.18 91.1895 309.31 106.129 309.29C117.869 309.29 138.799 290.45 162.649 257.5C174.999 240.45 179.839 220.06 151.709 232Z" fill="#7C89AB"/>
<path d="M159.61 266.54C157.71 268.11 155.82 269.72 153.97 271.36L155.16 269.98C158.35 266.2 161.5 262.39 164.65 258.58C164.71 258.5 164.58 258.4 164.51 258.48C158.51 264.86 152.51 271.18 146.44 277.54C140.37 283.9 124.54 300.01 120.69 303.17C120.61 303.24 120.69 303.37 120.79 303.31C124.27 300.59 134.04 292.41 137.16 289.36C141.873 284.746 146.403 279.986 150.75 275.08C153.922 272.466 156.949 269.682 159.82 266.74C159.93 266.63 159.74 266.43 159.61 266.54Z" fill="#263238"/>
<path d="M93.5192 298.93C74.0392 290.93 61.4192 231.84 56.6392 192.07C55.7292 184.5 115.569 177.21 115.639 185.36C115.879 231.88 114.859 307.67 93.5192 298.93Z" fill="#AD6359"/>
<path d="M49.1193 161.07C49.4693 173.76 60.3393 205.53 65.3493 210.72C70.3593 215.91 108.349 197.72 110.439 190.72C112.529 183.72 114.329 142.1 105.959 132.22C97.5893 122.34 48.7493 147.93 49.1193 161.07Z" fill="#AD6359"/>
<path d="M115.79 150C112.47 155.85 107.48 148.59 107.48 148.59C107.48 148.59 112.15 160.77 106.4 165.48C100.84 170 95.1095 161.02 94.6995 160.38C94.9395 161.03 98.9395 172.38 92.6995 176.47C86.1795 180.76 81.9795 170.76 81.6995 170.11C81.6995 170.8 82.0695 179.82 76.5895 181.88C67.1795 185.42 65.6995 162.36 59.3695 157.24C59.3695 157.24 49.4795 161.84 49.1295 162.06C49.1295 162.06 47.2795 145.3 54.6495 137.14C55.702 135.935 57.1354 135.127 58.7111 134.851C60.2868 134.574 61.9097 134.846 63.3095 135.62C63.3095 135.62 61.9395 128.62 66.7695 125.21C69.2495 123.46 74.2595 125.89 74.2595 125.89C74.2595 125.89 73.3895 120.24 77.8695 117.47C81.4495 115.25 85.8695 118.03 85.8695 118.03C85.8695 118.03 87.5495 112.22 91.9395 111.13C100.81 108.9 122.88 137.44 115.79 150Z" fill="#AD6359"/>
<path d="M86.6598 118.33C86.6492 118.311 86.6447 118.29 86.6471 118.269C86.6495 118.247 86.6587 118.228 86.6732 118.212C86.6877 118.196 86.7069 118.186 86.7279 118.182C86.7489 118.178 86.7706 118.181 86.7898 118.19C96.3398 125.8 104.5 137.09 107.79 148.92C107.9 149.31 107.31 149.66 107.11 149.25C101.39 137.7 95.3898 127.9 86.6598 118.33Z" fill="#263238"/>
<path d="M74.1796 125.67C74.0896 125.57 74.2596 125.41 74.3796 125.5C84.1796 133.4 93.0196 146.37 95.1996 160.5C95.2796 160.98 94.8596 161.5 94.7296 160.94C92.5696 151.64 82.0796 134.25 74.1796 125.67Z" fill="#263238"/>
<path d="M81.4994 171.12C78.8794 157.69 72.2194 146.45 63.7194 135.89C63.6094 135.75 63.8194 135.61 63.9394 135.7C69.5094 139.7 74.2194 147.03 77.4094 153.02C80.4791 158.511 82.0613 164.709 81.9994 171C81.9994 171.28 81.5494 171.41 81.4994 171.12Z" fill="#263238"/>
<path d="M107.479 148.56C108.158 150.976 108.614 153.45 108.839 155.95C109.147 158.373 108.802 160.835 107.839 163.08C107.353 164.089 106.508 164.881 105.469 165.3C104.417 165.711 103.278 165.846 102.159 165.69C101.057 165.448 100.018 164.975 99.1118 164.303C98.2053 163.63 97.4512 162.774 96.8991 161.79L93.9991 157.1L95.0991 162.51C95.6028 164.909 95.7143 167.375 95.4291 169.81C95.1191 172.18 94.1791 174.46 92.3691 175.66C91.5318 176.303 90.4997 176.639 89.4444 176.614C88.3892 176.588 87.3745 176.202 86.5691 175.52C84.7974 173.953 83.455 171.96 82.6691 169.73L80.2791 163.65L80.5391 170.15C80.6206 171.959 80.466 173.771 80.0791 175.54C79.7808 177.23 78.9913 178.795 77.8091 180.04C77.2517 180.576 76.556 180.946 75.7999 181.108C75.0439 181.271 74.2576 181.219 73.5291 180.96C71.9899 180.136 70.717 178.89 69.8591 177.37C67.9753 174.102 66.3503 170.691 64.9991 167.17C64.2491 165.41 63.4891 163.65 62.6491 161.92C61.8993 160.137 60.7816 158.532 59.3691 157.21C60.6082 158.654 61.5557 160.325 62.1591 162.13C62.8591 163.9 63.4791 165.71 64.0991 167.52C65.2543 171.214 66.7577 174.79 68.5891 178.2C69.5516 180.065 71.035 181.611 72.8591 182.65C73.9131 183.103 75.0765 183.238 76.2063 183.039C77.3362 182.84 78.3833 182.316 79.2191 181.53C80.7487 180.035 81.7939 178.116 82.2191 176.02C82.6792 174.054 82.8809 172.037 82.8191 170.02L80.6991 170.44C81.5869 173.095 83.1558 175.471 85.2491 177.33C86.437 178.33 87.9363 178.885 89.4891 178.9C91.0128 178.862 92.4899 178.367 93.7291 177.48C96.2591 175.72 97.2991 172.73 97.5991 170.08C97.879 167.404 97.7134 164.701 97.1091 162.08L95.2991 162.81C96.0313 164.004 97.0157 165.024 98.1834 165.798C99.3511 166.572 100.674 167.081 102.059 167.29C103.453 167.416 104.855 167.178 106.129 166.6C107.429 165.987 108.461 164.92 109.029 163.6C110.129 161.05 109.899 158.37 109.549 155.87C109.135 153.363 108.441 150.911 107.479 148.56Z" fill="#263238"/>
<path d="M111.619 193.4C111.619 193.4 142.479 136.9 113.619 136.15C106.619 135.97 78.8095 147.25 80.8195 152.88C83.4195 160.16 95.8195 157.93 103.459 155.29C103.459 155.29 94.3295 171.37 103.629 181.07C107.095 184.601 109.812 188.795 111.619 193.4Z" fill="#AD6359"/>
<path d="M115.62 136.12C112.871 136.012 110.122 136.309 107.46 137C104.778 137.615 102.142 138.414 99.5696 139.39C94.3776 141.259 89.3585 143.578 84.5696 146.32C83.3038 147.049 82.146 147.951 81.1296 149C80.5505 149.61 80.1134 150.341 79.8496 151.14C79.7005 151.581 79.6294 152.044 79.6396 152.51C79.6524 152.967 79.7367 153.419 79.8896 153.85C80.4622 155.398 81.5638 156.695 82.9996 157.51C84.3359 158.214 85.784 158.681 87.2796 158.89C90.1135 159.231 92.9848 159.085 95.7696 158.46C98.4881 157.899 101.162 157.141 103.77 156.19L102.64 154.8C101.666 156.674 100.873 158.636 100.27 160.66C99.6511 162.659 99.2389 164.717 99.0396 166.8C98.8652 168.891 98.9932 170.996 99.4196 173.05C99.8483 175.081 100.659 177.012 101.81 178.74C100.913 176.913 100.329 174.949 100.08 172.93C99.8619 170.932 99.9157 168.913 100.24 166.93C100.543 164.954 101.046 163.014 101.74 161.14C102.419 159.272 103.27 157.471 104.28 155.76L105.55 153.67L103.15 154.38C100.605 155.196 98.0094 155.844 95.3796 156.32C92.8231 156.84 90.1995 156.944 87.6096 156.63C85.1796 156.26 82.6796 155.12 81.9996 153.13C81.2396 151.43 83.5496 149.52 85.6996 148.13C87.961 146.699 90.2977 145.39 92.6996 144.21C95.1096 142.97 97.5396 141.77 100.02 140.7C105.08 138.67 110.17 136.55 115.62 136.12Z" fill="#263238"/>
<path d="M117.999 196.85L55.7691 210.45C55.7691 210.45 51.6691 222.25 55.2891 234.5C62.1591 257.74 82.6491 307.63 99.1791 306.5C117.079 305.25 121.429 242.89 121.179 212.35C120.999 202 117.999 196.85 117.999 196.85Z" fill="#7C89AB"/>
<g opacity="0.1">
<path d="M121.109 221.12C121.109 222.43 121.109 223.78 121.019 225.12C119.519 225.87 118.019 226.58 116.399 227.19C115.229 227.65 114.029 228.07 112.809 228.43C112.189 228.61 111.569 228.79 110.939 228.93C110.28 229.086 109.612 229.203 108.939 229.28C106.332 229.531 103.701 229.314 101.169 228.64C98.7193 228.07 96.3793 227.29 94.0093 226.75C91.6695 226.175 89.2771 225.84 86.8693 225.75C84.5104 225.682 82.1537 225.947 79.8693 226.54C79.3093 226.68 78.7393 226.86 78.2093 227.03C77.6793 227.2 77.2093 227.42 76.6493 227.64C75.5993 228.12 74.5193 228.64 73.4393 229.15L66.9293 232.33C64.7493 233.4 62.5393 234.47 60.3093 235.49C58.9593 236.13 57.5793 236.72 56.1793 237.29C55.8693 236.29 55.5793 235.36 55.3093 234.45C55.0993 233.76 54.9193 233.07 54.7793 232.38C58.1893 231.04 61.6393 229.64 65.0993 228.23C67.3693 227.33 69.6193 226.38 71.9793 225.58C73.1593 225.19 74.3393 224.79 75.5893 224.49C76.2193 224.34 76.8493 224.19 77.5893 224.09C78.3293 223.99 78.8693 223.94 79.5093 223.91C84.6493 223.61 89.5093 224.55 94.3693 225.12C99.03 225.771 103.759 225.771 108.419 225.12C109.419 224.94 110.579 224.67 111.699 224.37C112.819 224.07 113.929 223.72 115.049 223.37C116.999 222.69 119.069 221.93 121.109 221.12Z" fill="black"/>
<path d="M120.769 232C120.769 232.72 120.709 233.44 120.669 234.17C119.849 234.86 119.019 235.53 118.159 236.17C116.456 237.47 114.658 238.64 112.779 239.67C111.812 240.184 110.809 240.628 109.779 241C108.681 241.38 107.538 241.616 106.379 241.7C101.869 241.99 97.7194 241.08 93.6194 240.19L87.5394 238.79C86.5394 238.56 85.5394 238.35 84.5394 238.15C83.5836 237.947 82.6144 237.814 81.6394 237.75C81.4196 237.735 81.1991 237.735 80.9794 237.75L80.2594 237.84L79.5394 237.98C79.3094 237.98 79.0694 238.11 78.8294 238.17C77.8399 238.478 76.8901 238.901 75.9994 239.43C74.2417 240.486 72.6397 241.782 71.2394 243.28C70.5094 244.02 69.8394 244.81 69.1494 245.59L67.1494 248C65.7731 249.74 64.0758 251.2 62.1494 252.3C61.9471 252.413 61.7365 252.51 61.5194 252.59C61.2094 251.78 60.9094 250.98 60.6094 250.18C60.7594 250.12 60.9194 250.07 61.0694 250C62.8484 249.167 64.5067 248.097 65.9994 246.82C67.5994 245.52 69.1094 244.07 70.6294 242.63C72.1247 241.126 73.7328 239.739 75.4394 238.48C76.3187 237.84 77.2561 237.284 78.2394 236.82C78.7494 236.59 79.2394 236.4 79.7994 236.22L80.6094 235.99C80.8894 235.93 81.2194 235.87 81.4994 235.84C82.6035 235.734 83.7152 235.734 84.8194 235.84C85.8894 235.93 86.9394 236.08 87.9794 236.24C90.0594 236.57 92.1094 236.95 94.1494 237.3C96.1894 237.65 98.2194 237.98 100.229 238.25C102.188 238.55 104.167 238.7 106.149 238.7C107.076 238.683 107.997 238.549 108.889 238.3C109.822 238.033 110.735 237.699 111.619 237.3C113.467 236.466 115.258 235.51 116.979 234.44C118.259 233.687 119.523 232.873 120.769 232Z" fill="black"/>
</g>
<path d="M117.23 213.6C86.4496 222.24 64.2296 226.25 59.8996 226.92C59.8757 226.92 59.8528 226.911 59.8359 226.894C59.8191 226.877 59.8096 226.854 59.8096 226.83C59.8096 226.806 59.8191 226.783 59.8359 226.766C59.8528 226.749 59.8757 226.74 59.8996 226.74C81.2896 220.18 115.13 213.4 117.21 213.23C117.252 213.237 117.291 213.259 117.319 213.291C117.348 213.323 117.365 213.364 117.367 213.407C117.37 213.45 117.357 213.493 117.332 213.528C117.307 213.563 117.271 213.588 117.23 213.6Z" fill="#263238"/>
<path d="M120.26 250.6C119.53 256.43 117.87 265.68 116.53 271.4C116.44 271.76 116.35 272.12 116.27 272.48C116.65 274.531 116.841 276.613 116.84 278.7C116.84 281.14 116.63 283.55 116.38 285.97C116.38 286.07 116.21 286.06 116.22 285.97C116.38 283.562 116.36 281.145 116.16 278.74C116.05 277.31 115.93 275.87 115.81 274.43C114.5 279.89 113.12 285.35 111.42 290.7C111.42 290.8 111.24 290.7 111.27 290.64C112.55 284.83 113.92 279.03 114.99 273.18C116.06 267.33 118.51 253.6 119.53 247.79C120.34 243.18 120.49 248.77 120.26 250.6Z" fill="#263238"/>
<path d="M176.999 226.31C177.729 228.44 189.519 241.59 199.439 240.15C202.679 239.67 200.869 221.92 200.869 221.92L201.039 220.58L203.359 201.8L177.129 188.53C177.129 188.53 176.689 225.4 176.999 226.31Z" fill="#AD6359"/>
<path d="M203.34 201.81L201 220.57L200.84 221.92C200.84 221.92 201.16 225.14 201.29 228.86C187.51 228.17 180.29 218.57 176.89 211.79C176.95 201.14 177.1 188.53 177.1 188.53L203.34 201.81Z" fill="#263238"/>
<path d="M232.59 169.8C242.17 209.18 219.66 219.36 211.16 221.42C203.45 223.28 176.96 228.65 163.37 190.47C149.78 152.29 165.06 135.39 182.47 130.19C199.88 124.99 223 130.41 232.59 169.8Z" fill="#AD6359"/>
<path d="M221.28 170.93C220.345 170.943 219.41 170.907 218.48 170.82C217.49 170.922 216.495 170.693 215.65 170.17C215.415 169.953 215.26 169.664 215.207 169.349C215.155 169.034 215.208 168.711 215.36 168.43C215.737 167.917 216.245 167.516 216.831 167.267C217.417 167.019 218.059 166.934 218.69 167.02C219.993 166.985 221.263 167.437 222.25 168.29C222.463 168.497 222.611 168.762 222.677 169.052C222.743 169.342 222.724 169.645 222.621 169.924C222.518 170.204 222.337 170.447 222.099 170.626C221.861 170.804 221.577 170.91 221.28 170.93Z" fill="#263238"/>
<path d="M193.26 176.93C194.146 176.641 195.017 176.307 195.87 175.93C196.835 175.698 197.696 175.153 198.32 174.38C198.472 174.098 198.525 173.773 198.47 173.458C198.416 173.142 198.257 172.854 198.02 172.64C197.493 172.282 196.881 172.073 196.246 172.032C195.611 171.992 194.977 172.122 194.41 172.41C193.169 172.811 192.121 173.659 191.47 174.79C191.346 175.055 191.3 175.35 191.338 175.641C191.376 175.931 191.496 176.205 191.684 176.429C191.872 176.654 192.12 176.82 192.399 176.909C192.678 176.998 192.977 177.005 193.26 176.93Z" fill="#263238"/>
<path d="M205.12 204.13C205.85 204.7 206.6 205.51 207.6 205.49C208.62 205.363 209.601 205.022 210.48 204.49C210.498 204.483 210.518 204.481 210.537 204.485C210.556 204.489 210.574 204.498 210.588 204.512C210.602 204.526 210.611 204.543 210.615 204.563C210.619 204.582 210.617 204.602 210.61 204.62C210.276 205.201 209.791 205.68 209.206 206.008C208.622 206.335 207.96 206.498 207.29 206.48C206.714 206.397 206.176 206.145 205.745 205.754C205.314 205.364 205.009 204.854 204.87 204.29C204.81 204.13 205 204 205.12 204.13Z" fill="#263238"/>
<path d="M215.059 197.58C214.343 199.384 213.176 200.975 211.669 202.2C210.824 202.829 209.803 203.179 208.749 203.2C206.439 203.26 205.819 201.3 205.749 199.5C205.71 198.541 205.787 197.58 205.979 196.64C208.828 197.913 212.01 198.242 215.059 197.58Z" fill="white"/>
<path d="M213.68 200.13C213.57 200.28 213.45 200.45 213.32 200.6C212.592 200.685 211.857 200.685 211.13 200.6C212 200.44 212.85 200.29 213.68 200.13Z" fill="#DBDBDB"/>
<path d="M208.81 200.41C208.248 200.415 207.688 200.355 207.14 200.23C206.662 200.107 206.197 199.939 205.75 199.73C205.75 199.67 205.75 199.59 205.75 199.53C205.75 199.47 205.75 199.33 205.75 199.23C206.744 199.687 207.766 200.081 208.81 200.41Z" fill="#DBDBDB"/>
<path d="M214.869 192.4C214.869 192.4 216.099 196.4 216.419 198.29C216.419 198.47 215.999 198.63 215.359 198.77C215.359 198.77 215.309 198.77 215.279 198.77C213.683 199.343 211.96 199.465 210.299 199.125C208.637 198.785 207.102 197.994 205.859 196.84C205.817 196.808 205.789 196.761 205.781 196.708C205.774 196.656 205.787 196.602 205.819 196.56C205.851 196.517 205.899 196.489 205.951 196.482C206.004 196.474 206.057 196.488 206.099 196.52C208.825 197.788 211.888 198.139 214.829 197.52C214.829 196.97 212.469 190.72 212.779 190.72C214.089 190.72 216.429 190.91 217.299 190.98C216.549 188.38 214.069 181.11 212.719 176.37C212.639 176.08 213.089 175.9 213.199 176.17C215.667 181.397 217.785 186.782 219.539 192.29C219.669 192.75 215.689 192.59 214.869 192.4Z" fill="#263238"/>
<path d="M195.449 184.3C195.462 183.592 195.666 182.901 196.039 182.3C196.26 181.986 196.542 181.72 196.869 181.519C197.195 181.318 197.56 181.185 197.939 181.13C198.328 181.084 198.722 181.13 199.091 181.263C199.459 181.397 199.79 181.615 200.059 181.9C200.524 182.405 200.866 183.011 201.059 183.67C201.163 184.065 201.243 184.465 201.299 184.87C201.417 185.712 201.342 186.571 201.079 187.38C201.034 186.766 200.919 186.159 200.739 185.57C200.586 185.041 200.395 184.523 200.169 184.02C199.679 183.02 198.939 182.19 198.089 182.35C197.239 182.51 196.629 183.27 196.409 184.35C196.223 185.513 196.149 186.692 196.189 187.87C195.675 186.751 195.422 185.531 195.449 184.3Z" fill="#263238"/>
<path d="M222.689 179C222.413 178.359 221.967 177.806 221.399 177.4C221.078 177.19 220.717 177.049 220.338 176.985C219.959 176.922 219.572 176.937 219.199 177.03C218.822 177.132 218.473 177.322 218.183 177.584C217.893 177.847 217.669 178.174 217.529 178.54C217.288 179.177 217.202 179.863 217.279 180.54C217.325 180.945 217.402 181.346 217.509 181.74C217.708 182.568 218.102 183.336 218.659 183.98C218.465 183.397 218.34 182.793 218.289 182.18C218.245 181.627 218.245 181.072 218.289 180.52C218.349 179.39 218.729 178.37 219.579 178.2C220.429 178.03 221.279 178.49 221.899 179.45C222.51 180.458 223.023 181.523 223.429 182.63C223.476 181.378 223.222 180.134 222.689 179Z" fill="#263238"/>
<path d="M159.47 194C171.52 194.13 176.94 179.45 173.47 168.11C173.47 168.11 205.63 170.45 205.64 144.75C208.086 148.08 211.314 150.756 215.039 152.544C218.764 154.332 222.872 155.175 227 155L231.13 164.23C234.35 163.09 237.28 153.59 228.84 146.76C228.84 146.76 227.54 134.03 217.67 126.92C214.998 124.87 211.791 123.636 208.434 123.366C205.077 123.097 201.714 123.803 198.75 125.4C192.957 121.71 185.957 120.419 179.23 121.8C167.61 124 163.4 135 163.4 135C163.4 135 147.77 139 145.75 150.34C145.098 153.574 145.14 156.909 145.872 160.126C146.605 163.343 148.012 166.367 150 169C150 169 146.3 173.65 148.88 183.11C150.5 189.14 155.86 194 159.47 194Z" fill="#263238"/>
<path d="M204.779 142.54C205.145 144.602 205.292 146.697 205.219 148.79C205.205 150.855 204.936 152.91 204.419 154.91C203.433 158.867 200.991 162.306 197.579 164.54C194.269 166.95 190.029 167.54 185.989 168.18C183.919 168.24 181.839 168.45 179.749 168.39C177.659 168.33 175.569 168.17 173.449 168.13C175.519 168.5 177.609 168.79 179.709 169.13C181.809 169.47 183.939 169.26 186.079 169.33C190.279 168.91 194.699 168.33 198.389 165.78C202.063 163.315 204.625 159.51 205.529 155.18C206.348 150.971 206.09 146.623 204.779 142.54Z" fill="#263238"/>
<path d="M163.399 135C159.347 135.271 155.394 136.378 151.789 138.25C148.028 140.104 145.042 143.228 143.359 147.07C142.653 149.026 142.265 151.082 142.209 153.16C142.078 155.223 142.301 157.293 142.869 159.28C143.938 163.302 146.484 166.773 149.999 169C146.969 166.442 144.862 162.961 143.999 159.09C143.155 155.299 143.419 151.345 144.759 147.7C145.451 145.927 146.469 144.299 147.759 142.9C149.129 141.523 150.664 140.32 152.329 139.32C155.767 137.302 159.504 135.844 163.399 135Z" fill="#263238"/>
<path d="M198.789 125.44C201.734 124.165 204.863 123.368 208.059 123.08C211.174 122.777 214.314 123.28 217.179 124.54C219.981 125.918 222.388 127.982 224.179 130.54C226.027 133.165 227.483 136.045 228.499 139.09C228.019 135.829 226.868 132.703 225.119 129.91C223.425 126.962 220.861 124.611 217.778 123.179C214.695 121.746 211.244 121.303 207.899 121.91C204.643 122.414 201.535 123.618 198.789 125.44Z" fill="#263238"/>
<path d="M222.109 156.37C218.542 155.388 215.162 153.82 212.109 151.73C210.618 150.687 209.272 149.45 208.109 148.05C206.935 146.605 205.928 145.032 205.109 143.36C205.387 145.268 206.069 147.096 207.109 148.72C208.152 150.373 209.512 151.804 211.109 152.93C212.694 154.054 214.445 154.921 216.299 155.5C218.171 156.123 220.137 156.418 222.109 156.37Z" fill="#263238"/>
<path d="M196.76 199.28C194.116 199.466 191.472 198.906 189.131 197.664C186.789 196.422 184.843 194.548 183.514 192.255C182.185 189.962 181.526 187.341 181.613 184.692C181.7 182.043 182.528 179.471 184.004 177.27C185.48 175.068 187.544 173.325 189.962 172.239C192.38 171.152 195.054 170.767 197.68 171.125C200.307 171.483 202.78 172.572 204.818 174.266C206.856 175.961 208.378 178.193 209.21 180.71C210.381 184.276 210.091 188.161 208.404 191.513C206.717 194.866 203.771 197.414 200.21 198.6C199.091 198.965 197.933 199.194 196.76 199.28ZM194.91 172.92C193.889 172.994 192.882 173.192 191.91 173.51C188.948 174.489 186.471 176.559 184.983 179.3C183.495 182.041 183.107 185.247 183.899 188.263C184.691 191.28 186.603 193.882 189.245 195.538C191.888 197.195 195.063 197.782 198.123 197.18C201.183 196.578 203.899 194.833 205.718 192.299C207.536 189.765 208.32 186.633 207.911 183.541C207.501 180.449 205.929 177.629 203.513 175.656C201.098 173.683 198.021 172.704 194.91 172.92Z" fill="#7C89AB"/>
<path d="M227.42 193.16C222.01 193.54 216.73 188.35 215.35 181.09C214.64 177.632 215.025 174.039 216.45 170.81C216.98 169.386 217.869 168.124 219.031 167.145C220.192 166.166 221.587 165.503 223.08 165.222C224.572 164.94 226.113 165.049 227.551 165.537C228.989 166.026 230.277 166.877 231.29 168.01C233.796 170.491 235.463 173.694 236.06 177.17C237.51 184.84 234.06 191.96 228.34 193.04C228.036 193.099 227.729 193.14 227.42 193.16ZM224.14 167C223.9 167 223.67 167 223.43 167.09C222.252 167.37 221.159 167.929 220.243 168.719C219.326 169.509 218.611 170.507 218.16 171.63C216.899 174.496 216.567 177.685 217.21 180.75C218.47 187.39 223.29 192.08 227.99 191.19C232.69 190.3 235.46 184.19 234.2 177.54C233.682 174.45 232.21 171.6 229.99 169.39C229.236 168.605 228.326 167.987 227.318 167.575C226.311 167.163 225.228 166.967 224.14 167Z" fill="#7C89AB"/>
<path d="M209.179 182.38L207.939 181.38C209.439 179.55 213.169 176.77 216.619 179.29L215.619 180.57C212.589 178.3 209.319 182.22 209.179 182.38Z" fill="#7C89AB"/>
<path d="M153.16 196.12L151.63 195.66C151.85 194.95 153.81 188.66 157.2 187.43C160.38 186.29 181.76 184.29 182.67 184.2L182.82 185.79C176.69 186.36 160.2 188.04 157.75 188.93C155.51 189.75 153.68 194.4 153.16 196.12Z" fill="#7C89AB"/>
<path d="M171.729 192.28C171.729 192.28 161.069 181.12 155.879 185.1C150.689 189.08 160.029 206.21 167.069 207.67C167.957 207.92 168.887 207.988 169.802 207.871C170.717 207.753 171.598 207.451 172.394 206.984C173.19 206.517 173.883 205.895 174.432 205.153C174.981 204.412 175.375 203.567 175.589 202.67L171.729 192.28Z" fill="#AD6359"/>
<path d="M158.679 189.94C158.659 189.946 158.642 189.959 158.629 189.976C158.617 189.993 158.61 190.014 158.61 190.035C158.61 190.056 158.617 190.077 158.629 190.094C158.642 190.111 158.659 190.123 158.679 190.13C163.679 191.3 166.759 195.26 169.169 199.49C167.519 197.97 165.479 197.31 163.419 199.32C163.309 199.43 163.419 199.6 163.589 199.55C164.37 199.164 165.252 199.029 166.113 199.164C166.974 199.298 167.772 199.695 168.399 200.3C169.437 201.325 170.362 202.458 171.159 203.68C171.439 204.06 172.159 203.68 171.929 203.27L171.869 203.16C171.069 197.19 165.169 189.56 158.679 189.94Z" fill="#263238"/>
<path d="M160.62 229C158.98 227 169.53 221 172.27 223.26C175.01 225.52 188.88 260.7 184.38 298.87C179.88 337.04 106 378.17 103.25 372.46C102.11 370.06 103.57 363.37 105.37 361.23C107.9 358.23 161.25 325.11 166.52 301.44C171.2 280.39 164.78 234.2 160.62 229Z" fill="#373D60"/>
<path d="M202.21 228.2C199.99 223.99 211.42 227.38 212.67 229.65C213.92 231.92 229.2 268.39 231.84 292.23C232.84 301.78 236.59 327.49 236.59 327.49C236.59 327.49 225.43 293 216.23 264.12C212.32 251.863 207.637 239.865 202.21 228.2Z" fill="#373D60"/>
<path d="M418.51 378.76C418.51 378.76 430.21 336.55 439.51 322.22C448.81 307.89 466.27 292.14 466.27 292.14C466.27 292.14 465.9 357.21 418.51 378.76Z" fill="#7C89AB"/>
<path d="M419.35 378C423.287 371.406 426.843 364.591 430 357.59C431.342 350.047 433.285 342.623 435.81 335.39C435.86 335.26 436.05 335.33 436.02 335.47C434.47 342.13 432.66 348.74 431.02 355.39C435.74 345.12 440.23 334.72 445.85 325.01C447.148 320.317 448.969 315.785 451.28 311.5C451.34 311.38 451.54 311.44 451.48 311.57C450.057 314.872 448.838 318.258 447.83 321.71C450.48 317.377 453.452 313.248 456.72 309.36C456.93 309.12 457.34 309.36 457.13 309.65C449.61 319.3 444.42 330.27 439.48 341.38C444.796 335.582 449.701 329.421 454.16 322.94C454.16 322.88 454.3 322.94 454.26 323.01C449.614 330.276 444.355 337.131 438.54 343.5C434.94 351.64 431.4 359.81 427.11 367.56C435.69 360.27 442.29 350.84 448.82 341.74C448.834 341.719 448.853 341.701 448.874 341.687C448.896 341.673 448.92 341.664 448.945 341.659C448.97 341.654 448.995 341.655 449.02 341.66C449.045 341.665 449.069 341.675 449.09 341.69C449.111 341.704 449.129 341.723 449.143 341.744C449.157 341.766 449.166 341.789 449.171 341.815C449.176 341.84 449.175 341.865 449.17 341.89C449.165 341.915 449.154 341.939 449.14 341.96C442.6 351.96 435.84 361.35 426.44 368.74C424.536 372.143 422.439 375.435 420.16 378.6C420.08 378.707 419.961 378.779 419.829 378.798C419.697 378.818 419.562 378.784 419.455 378.705C419.348 378.625 419.276 378.506 419.256 378.374C419.237 378.242 419.27 378.107 419.35 378Z" fill="#263238"/>
<path d="M414.88 382.56C414.88 382.56 435.88 343.64 429.8 305.91C423.72 268.18 417.15 254.74 417.15 254.74C417.15 254.74 384.1 313.43 414.88 382.56Z" fill="#7C89AB"/>
<path d="M406.25 321.38C408.031 332.071 410.748 342.585 414.37 352.8C414.43 338.95 414.69 325.11 415.06 311.26C412.685 302.858 411.342 294.197 411.06 285.47C411.06 285.22 411.43 285.23 411.45 285.47C412.116 292.95 413.349 300.368 415.14 307.66C415.46 296.24 415.827 284.82 416.24 273.4C416.24 273.36 416.256 273.322 416.284 273.294C416.312 273.266 416.35 273.25 416.39 273.25C416.43 273.25 416.468 273.266 416.496 273.294C416.524 273.322 416.54 273.36 416.54 273.4C416.54 291.24 416.54 309.08 416.42 326.93C418.985 320.031 421.011 312.943 422.48 305.73C422.485 305.717 422.494 305.706 422.506 305.698C422.517 305.69 422.531 305.686 422.545 305.686C422.559 305.686 422.573 305.69 422.584 305.698C422.596 305.706 422.605 305.717 422.61 305.73C421.97 314.06 419.45 322.12 416.4 329.85C416.32 341.26 416.2 352.66 415.94 364.07C419.5 351.94 423.3 340.2 424.33 327.38C424.33 327.363 424.333 327.346 424.34 327.33C424.346 327.314 424.356 327.3 424.368 327.288C424.38 327.276 424.395 327.266 424.41 327.26C424.426 327.253 424.443 327.25 424.46 327.25C424.477 327.25 424.494 327.253 424.51 327.26C424.526 327.266 424.54 327.276 424.552 327.288C424.564 327.3 424.574 327.314 424.58 327.33C424.587 327.346 424.59 327.363 424.59 327.38C424.32 341.51 420.69 355.85 416.06 369.14C416.009 369.271 415.926 369.388 415.82 369.48C415.72 373.64 415.6 377.807 415.46 381.98C415.46 382.102 415.412 382.219 415.325 382.305C415.239 382.392 415.122 382.44 415 382.44C414.878 382.44 414.761 382.392 414.675 382.305C414.589 382.219 414.54 382.102 414.54 381.98C414.367 373.453 414.297 364.927 414.33 356.4C409.61 345.4 407.09 333.21 406.04 321.4C406.06 321.29 406.24 321.27 406.25 321.38Z" fill="#263238"/>
<path d="M407.69 315.36C408.429 318.746 408.921 322.182 409.16 325.64C409.16 325.76 408.99 325.77 408.96 325.64C408.142 322.268 407.564 318.843 407.23 315.39C407.2 315.15 407.64 315.1 407.69 315.36Z" fill="#263238"/>
<path d="M420 286.91C420 286.79 420.2 286.83 420.2 286.91C420.174 289.311 419.817 291.696 419.141 294C419.091 294.19 418.82 294.1 418.86 293.92C419.31 291.61 419.59 289.26 420 286.91Z" fill="#263238"/>
<path d="M407.22 385.54C407.22 385.54 408.07 344.91 396.48 324.72C384.89 304.53 365.66 294.24 365.66 294.24C365.66 294.24 373.41 365.85 407.22 385.54Z" fill="#7C89AB"/>
<path d="M386.09 350.8C390.96 357.85 395.81 364.65 401.78 370.8C399.46 362.493 396.793 354.327 393.78 346.3C387.28 340.57 380.84 334.63 376.85 326.79C376.79 326.67 376.97 326.56 377.04 326.68C381.33 333.62 387.04 339.18 393.09 344.52C388.443 332.424 383.056 320.625 376.96 309.19C376.939 309.133 376.939 309.071 376.96 309.014C376.98 308.956 377.02 308.908 377.072 308.877C377.124 308.847 377.186 308.835 377.245 308.845C377.305 308.854 377.36 308.884 377.4 308.93C381.107 314.926 384.485 321.118 387.52 327.48C386.43 323.13 385.52 318.69 384.45 314.38C384.443 314.356 384.446 314.331 384.459 314.309C384.471 314.287 384.491 314.272 384.515 314.265C384.539 314.258 384.564 314.262 384.586 314.274C384.607 314.286 384.623 314.306 384.63 314.33C386.69 319.76 388.73 325.76 389.39 331.56C393.45 340.572 396.862 349.862 399.6 359.36C399.3 353.27 398.92 347.21 398.3 341.13C398.3 341.02 398.48 340.99 398.5 341.13C399.787 347.872 400.373 354.728 400.25 361.59C401.92 367.64 403.33 373.77 404.46 379.94C404.46 380.11 404.25 380.18 404.21 380.01C403.58 377.42 402.89 374.86 402.21 372.3C402.21 372.3 402.12 372.3 402.08 372.3C395.86 366.03 389.96 358.9 386.08 350.91C386 350.79 386.06 350.76 386.09 350.8Z" fill="#263238"/>
<path d="M372.661 317.74C373.951 319.14 375.131 320.62 376.381 322.06C377.593 323.279 378.709 324.59 379.721 325.98C379.721 326.04 379.721 326.11 379.631 326.07C378.171 324.984 376.872 323.698 375.771 322.25C374.55 320.888 373.447 319.426 372.471 317.88C372.401 317.77 372.571 317.64 372.661 317.74Z" fill="#263238"/>
<path d="M441.66 380.58L440.2 393.58L435.79 433H397.39L393 393.6L391.53 380.6H441.67L441.66 380.58Z" fill="#373D60"/>
<path d="M441.66 380.58L440.2 393.58H393L391.53 380.58H441.67H441.66Z" fill="#E2857E"/>
<path d="M388.11 385.88H445.07V371.13H388.11V385.88Z" fill="#373D60"/>
<path d="M389.65 419.41H274.75V433.01H389.65V419.41Z" fill="#454A6A"/>
<path d="M301.97 419.41H297.29V433.01H301.97V419.41Z" fill="#455A64"/>
<path d="M376.13 419.41H364.9V433.01H376.13V419.41Z" fill="#455A64"/>
<path d="M381.381 379.65H264.021V397.62H381.381V379.65Z" fill="#454A6A"/>
<path d="M360.621 385.48H332.431V391.79H360.621V385.48Z" fill="#7C89AB"/>
<path d="M374.75 388.63C374.798 389.376 374.621 390.12 374.241 390.764C373.861 391.409 373.296 391.924 372.619 392.243C371.943 392.562 371.186 392.671 370.447 392.554C369.708 392.438 369.021 392.102 368.476 391.59C367.93 391.078 367.551 390.414 367.388 389.684C367.225 388.954 367.284 388.192 367.56 387.497C367.835 386.801 368.313 386.204 368.932 385.784C369.551 385.364 370.282 385.139 371.03 385.14C371.986 385.11 372.915 385.461 373.612 386.115C374.309 386.77 374.719 387.674 374.75 388.63Z" fill="#7C89AB"/>
<path d="M317.65 363.75H258.36V379.61H317.65V363.75Z" fill="#263238"/>
<path d="M372.45 363.75H317.65V379.61H372.45V363.75Z" fill="#263238"/>
<path d="M317.65 365.4H258.36V377.97H317.65V365.4Z" fill="white"/>
<path d="M263.521 368C269.734 367.92 275.947 367.86 282.161 367.82L290.591 367.76L309.221 367.82C315.431 367.82 311.441 367.91 317.651 368C311.441 368.09 315.431 368.15 309.221 368.19L290.591 368.24L282.161 368.19C275.947 368.137 269.734 368.073 263.521 368Z" fill="#DBDBDB"/>
<path d="M263.521 370.45C269.734 370.363 275.947 370.303 282.161 370.27L290.591 370.21L309.221 370.26C315.431 370.26 311.441 370.36 317.651 370.45C311.441 370.54 315.431 370.6 309.221 370.63L290.591 370.69L282.161 370.63C275.947 370.603 269.734 370.543 263.521 370.45Z" fill="#DBDBDB"/>
<path d="M263.521 372.91C269.734 372.83 275.947 372.77 282.161 372.73L290.591 372.68L309.221 372.73C315.431 372.73 311.441 372.83 317.651 372.91C311.441 373 315.431 373.07 309.221 373.1H290.591H282.161C275.947 373.067 269.734 373.003 263.521 372.91Z" fill="#DBDBDB"/>
<path d="M263.521 375.38C269.734 375.293 275.947 375.233 282.161 375.2L290.591 375.14L309.221 375.2C315.431 375.2 311.441 375.29 317.651 375.38C311.441 375.47 315.431 375.53 309.221 375.56L290.591 375.62L282.161 375.56C275.947 375.533 269.734 375.473 263.521 375.38Z" fill="#DBDBDB"/>
<path d="M337.51 363.75H329.79V379.61H337.51V363.75Z" fill="#455A64"/>
<path d="M369.621 363.75H364.431V379.61H369.621V363.75Z" fill="#455A64"/>
<path d="M309.781 419.4H376.551V397.6H309.781V419.4Z" fill="#E2857E"/>
<path d="M259.08 419.4H309.78V397.6H259.08V419.4Z" fill="#E2857E"/>
<path d="M309.781 417.14H376.551V399.87H309.781V417.14Z" fill="white"/>
<path d="M372.221 413.59C367.021 413.683 361.817 413.743 356.611 413.77L341.001 413.83L325.391 413.77C320.184 413.77 314.977 413.71 309.771 413.59C314.984 413.503 320.191 413.443 325.391 413.41L341.001 413.35L356.611 413.41C361.817 413.443 367.021 413.503 372.221 413.59Z" fill="#DBDBDB"/>
<path d="M372.221 410.2C367.021 410.293 361.817 410.353 356.611 410.38L341.001 410.44L325.391 410.39C320.184 410.35 314.977 410.287 309.771 410.2C314.984 410.113 320.191 410.053 325.391 410.02L341.001 410L356.611 410.06C361.817 410.067 367.021 410.113 372.221 410.2Z" fill="#DBDBDB"/>
<path d="M372.221 406.81C367.021 406.897 361.817 406.96 356.611 407L341.001 407.05L325.391 407C320.184 406.96 314.977 406.897 309.771 406.81C314.984 406.723 320.191 406.663 325.391 406.63L341.001 406.57L356.611 406.63C361.817 406.663 367.021 406.723 372.221 406.81Z" fill="#DBDBDB"/>
<path d="M372.221 403.42C367.021 403.507 361.817 403.57 356.611 403.61L341.001 403.66L325.391 403.61C320.184 403.61 314.977 403.547 309.771 403.42C314.984 403.327 320.191 403.267 325.391 403.24L341.001 403.18L356.611 403.24C361.821 403.27 367.001 403.34 372.221 403.42Z" fill="#DBDBDB"/>
<path d="M276.64 397.61H267.15V419.41H276.64V397.61Z" fill="#F1B1B1"/>
<path d="M314.92 103.66C314.918 110.277 313.079 116.763 309.606 122.396C306.134 128.028 301.166 132.585 295.255 135.559C289.344 138.533 282.724 139.807 276.131 139.239C269.539 138.67 263.234 136.282 257.92 132.34L240.42 136.81L247.71 120.51C245.146 115.721 243.708 110.409 243.505 104.98C243.302 99.5514 244.34 94.1477 246.539 89.1802C248.739 84.2126 252.043 79.8121 256.199 76.3132C260.355 72.8143 265.254 70.3092 270.524 68.9885C275.793 67.6677 281.295 67.566 286.61 68.6912C291.925 69.8163 296.913 72.1387 301.196 75.4816C305.478 78.8245 308.942 83.1 311.324 87.9829C313.705 92.8657 314.942 98.2274 314.94 103.66H314.92Z" fill="white"/>
<path d="M314.92 103.66C314.91 110.278 313.076 116.766 309.62 122.41C308.752 123.798 307.804 125.133 306.78 126.41C305.715 127.667 304.572 128.856 303.36 129.97C302.768 130.542 302.147 131.082 301.5 131.59L299.5 133.08C298.84 133.57 298.11 133.96 297.41 134.41L296.36 135.06C296 135.26 295.62 135.43 295.26 135.61C294.51 135.97 293.78 136.35 293.03 136.69L290.71 137.56C289.938 137.856 289.146 138.096 288.34 138.28C287.54 138.47 286.76 138.74 285.94 138.86C284.316 139.18 282.672 139.38 281.02 139.46C279.356 139.592 277.684 139.592 276.02 139.46C272.714 139.19 269.461 138.47 266.35 137.32C263.24 136.147 260.303 134.56 257.62 132.6L257.92 132.66L240.44 137.2L239.56 137.43L239.93 136.6L247.18 120.28V120.71C244.586 115.869 243.155 110.49 243 105C242.8 99.4992 243.862 94.0257 246.105 88.9989C248.348 83.9722 251.712 79.5257 255.94 76.0001C260.15 72.4982 265.107 70.0078 270.43 68.7201C275.717 67.4384 281.227 67.372 286.544 68.5258C291.861 69.6795 296.847 72.0235 301.128 75.3815C305.409 78.7394 308.873 83.024 311.26 87.9133C313.647 92.8026 314.895 98.1693 314.91 103.61L314.92 103.66ZM314.92 103.66C314.891 98.2375 313.633 92.892 311.239 88.0264C308.845 83.1607 305.378 78.9017 301.1 75.5701C296.81 72.2791 291.839 69.9898 286.55 68.8701C281.252 67.803 275.782 67.95 270.55 69.3001C265.34 70.6297 260.503 73.1336 256.41 76.6201C252.352 80.1289 249.113 84.4844 246.92 89.3801C244.762 94.283 243.746 99.6119 243.949 104.965C244.152 110.318 245.567 115.554 248.09 120.28L248.2 120.49L248.11 120.71L240.8 137L240.29 136.39L257.82 132H257.98L258.12 132.1C263.35 136.065 269.585 138.489 276.12 139.1C277.748 139.253 279.387 139.277 281.02 139.17C282.653 139.103 284.28 138.926 285.89 138.64C286.7 138.53 287.48 138.26 288.28 138.08C289.082 137.913 289.871 137.686 290.64 137.4L292.95 136.57L295.17 135.52C295.54 135.34 295.92 135.18 296.28 134.98L297.28 134.35C297.97 133.92 298.71 133.54 299.37 133.06L301.37 131.59C302.017 131.087 302.638 130.549 303.23 129.98C304.44 128.873 305.582 127.694 306.65 126.45C307.68 125.176 308.632 123.84 309.5 122.45C313.005 116.807 314.881 110.304 314.92 103.66Z" fill="#263238"/>
<path d="M273.4 124.92L257.39 108.71L262.77 103.39L272.12 112.86L291.56 82.4001L297.93 86.4601L273.4 124.92Z" fill="#E2857E"/>
</svg>
