<svg width="23" height="23" viewBox="0 0 23 23" fill="none" xmlns="http://www.w3.org/2000/svg">
<path d="M11.5003 1.91663C6.2076 1.91663 1.91699 6.20723 1.91699 11.5C1.91699 16.7927 6.2076 21.0833 11.5003 21.0833C16.7931 21.0833 21.0837 16.7927 21.0837 11.5C21.0837 6.20723 16.7931 1.91663 11.5003 1.91663Z" stroke="#2C2C2C" stroke-width="1.5" stroke-linecap="round" stroke-linejoin="round"/>
<path d="M4.09375 17.5813C4.09375 17.5813 6.2299 14.8541 11.5007 14.8541C16.7716 14.8541 18.9077 17.5813 18.9077 17.5813" stroke="#2C2C2C" stroke-width="1.5" stroke-linecap="round" stroke-linejoin="round"/>
<path d="M11.5 11.5C13.0878 11.5 14.375 10.2128 14.375 8.625C14.375 7.03718 13.0878 5.75 11.5 5.75C9.91218 5.75 8.625 7.03718 8.625 8.625C8.625 10.2128 9.91218 11.5 11.5 11.5Z" stroke="#2C2C2C" stroke-width="1.5" stroke-linecap="round" stroke-linejoin="round"/>
</svg>
