<svg width="23" height="23" viewBox="0 0 23 23" fill="none" xmlns="http://www.w3.org/2000/svg">
<path d="M6.70801 17.25V16.2917C6.70801 13.6453 8.85331 11.5 11.4997 11.5C14.146 11.5 16.2913 13.6453 16.2913 16.2917V17.25" stroke="#2C2C2C" stroke-width="1.5" stroke-linecap="round" stroke-linejoin="round"/>
<path d="M0.958008 17.25V16.2917C0.958008 14.7038 2.24519 13.4167 3.83301 13.4167" stroke="#2C2C2C" stroke-width="1.5" stroke-linecap="round" stroke-linejoin="round"/>
<path d="M22.042 17.25V16.2917C22.042 14.7038 20.7548 13.4167 19.167 13.4167" stroke="#2C2C2C" stroke-width="1.5" stroke-linecap="round" stroke-linejoin="round"/>
<path d="M11.5 11.5C13.0878 11.5 14.375 10.2128 14.375 8.625C14.375 7.03718 13.0878 5.75 11.5 5.75C9.91218 5.75 8.625 7.03718 8.625 8.625C8.625 10.2128 9.91218 11.5 11.5 11.5Z" stroke="#2C2C2C" stroke-width="1.5" stroke-linecap="round" stroke-linejoin="round"/>
<path d="M3.83366 13.4167C4.8922 13.4167 5.75033 12.5586 5.75033 11.5C5.75033 10.4415 4.8922 9.58334 3.83366 9.58334C2.77511 9.58334 1.91699 10.4415 1.91699 11.5C1.91699 12.5586 2.77511 13.4167 3.83366 13.4167Z" stroke="#2C2C2C" stroke-width="1.5" stroke-linecap="round" stroke-linejoin="round"/>
<path d="M19.1667 13.4167C20.2252 13.4167 21.0833 12.5586 21.0833 11.5C21.0833 10.4415 20.2252 9.58334 19.1667 9.58334C18.1081 9.58334 17.25 10.4415 17.25 11.5C17.25 12.5586 18.1081 13.4167 19.1667 13.4167Z" stroke="#2C2C2C" stroke-width="1.5" stroke-linecap="round" stroke-linejoin="round"/>
</svg>
