<svg width="603" height="615" viewBox="0 0 603 615" fill="none" xmlns="http://www.w3.org/2000/svg">
<path d="M528.678 517.802C496.034 548.553 452.066 564.358 408.29 574.092C340.668 589.116 270.256 591.498 201.772 581.061C160.209 574.732 118.223 563.168 84.7159 537.772C51.2165 512.368 27.5943 470.861 32.6925 429.123C36.7285 396.063 57.3456 367.829 74.8065 339.468C92.2755 311.099 107.595 277.775 99.5633 245.451C89.7819 206.117 48.2749 180.314 40.0125 140.629C32.5083 104.556 55.4599 68.4676 84.1803 45.3649C93.7544 37.6577 104.087 31.0236 114.963 25.464C141.854 11.719 173.79 11.4552 200.769 25.0268C200.922 25.1037 201.075 25.1815 201.228 25.2593C235.75 42.7998 263.184 75.9397 301.383 82.3093C358.257 91.7948 408.618 37.8536 466.283 38.0538C494.205 38.1495 521.759 52.0546 538.436 74.4546C555.106 96.8617 560.516 127.237 552.597 154.023C540.834 193.796 502.292 224.466 501.189 265.925C499.878 315.16 551.055 349.25 566.365 396.054C580.317 438.681 561.33 487.052 528.678 517.802Z" fill="#7C89AB"/>
<path d="M533.665 345.493C511.671 398.942 493.538 454.639 461.757 503.389C435.225 544.088 397.141 580.17 350.285 595.628C299.388 612.42 244.493 600.44 199.988 572.289C154.5 543.515 122.176 498.61 98.4286 451.099C72.395 399.011 52.8464 341.839 46.5751 283.76C43.7104 257.228 43.7453 228.446 57.6495 204.736C69.3774 184.736 89.1255 171.529 108.756 160.157C129.612 148.075 151.289 137.398 170.236 122.322C192.167 104.871 209.779 82.4707 232.147 65.5704C243.016 57.3589 256.29 51.0019 268.899 45.9931C282.39 40.6348 296.499 36.9555 310.84 34.7462C336.948 30.7228 365.532 32.6763 388.666 46.4455C411.834 60.2353 423.882 85.4222 440.859 105.338C458.993 126.612 482.186 142.613 503.635 160.255C523.683 176.743 543.973 195.892 553.718 220.539C564.57 247.983 559.034 277.38 549.782 304.409C545.017 318.334 539.274 331.895 533.665 345.493C531.035 351.87 541.411 354.649 544.011 348.345C555.731 319.931 568.584 290.874 570.368 259.76C572.029 230.774 561.168 204.814 542.713 182.907C524.224 160.96 500.452 144.608 478.482 126.46C467.405 117.309 456.687 107.622 447.455 96.5779C438.647 86.0409 431.29 74.3836 422.805 63.5927C414.394 52.8948 404.715 43.2787 392.842 36.4585C381.117 29.7232 367.945 25.6344 354.601 23.7112C325.518 19.5205 294.84 24.4945 267.57 35.0512C254.05 40.2852 240.507 46.8104 228.521 55.0209C216.993 62.9176 206.899 73.215 196.967 82.9714C186.403 93.3475 175.968 103.904 164.474 113.268C154.608 121.307 143.778 128.035 132.759 134.361C111.673 146.465 89.5359 157.222 70.8885 173.062C50.3205 190.535 38.5961 213.728 35.3961 240.444C31.9074 269.573 36.9501 299.994 43.1534 328.429C49.844 359.099 59.7533 389.009 71.737 418.002C92.9728 469.373 120.797 519.481 162.489 557.133C203.015 593.731 257.827 617.843 313.146 613.849C365.716 610.051 412.168 580.481 446.269 541.531C484.661 497.679 506.664 443.038 527.669 389.426C533.045 375.703 538.401 361.973 544.01 348.344C546.637 341.964 536.261 339.185 533.665 345.493Z" fill="#454A6A"/>
<path d="M301.5 515.637C430.642 515.637 535.332 509.525 535.332 501.985C535.332 494.446 430.642 488.333 301.5 488.333C172.359 488.333 67.6689 494.446 67.6689 501.985C67.6689 509.525 172.359 515.637 301.5 515.637Z" fill="#F5F5F5"/>
<path d="M310.051 102.739C309.004 102.187 307.858 101.847 306.679 101.738C305.5 101.63 304.311 101.755 303.181 102.107C302.05 102.458 301 103.03 300.091 103.788C299.182 104.547 298.431 105.477 297.882 106.526C295.775 105.47 293.338 105.283 291.094 106.006C288.851 106.729 286.98 108.303 285.885 110.39C284.79 112.477 284.558 114.911 285.239 117.168C285.919 119.424 287.458 121.324 289.525 122.457L305.456 130.815L313.814 114.884C314.365 113.839 314.705 112.697 314.814 111.521C314.923 110.345 314.799 109.159 314.45 108.031C314.1 106.904 313.532 105.856 312.777 104.947C312.022 104.039 311.096 103.289 310.051 102.739Z" fill="#E2857E"/>
<path d="M294.397 138.4C293.733 137.145 292.598 136.205 291.241 135.786C289.884 135.368 288.416 135.506 287.161 136.169C286.472 134.964 285.341 134.074 284.008 133.686C282.675 133.298 281.243 133.444 280.015 134.091C278.787 134.739 277.858 135.839 277.425 137.158C276.992 138.477 277.089 139.913 277.694 141.162L282.687 150.617L292.154 145.624C293.408 144.963 294.349 143.831 294.769 142.476C295.19 141.122 295.056 139.656 294.397 138.4Z" fill="#E2857E"/>
<path d="M236.448 154.887C228.91 164.089 230.249 172.47 232.384 180.213C223.061 174.593 215.041 187.22 217.61 192.273C205.731 200.401 216.006 215.38 228.693 211.75C234.723 225.655 264.355 226.837 264.21 218.805C288.571 224.268 278.079 197.41 270.698 194.95C280.865 193.02 279.369 180.599 272.411 176.426C280.539 166.778 276.511 155.128 266.164 153.633C256.733 142.827 242.586 147.397 236.448 154.887Z" fill="#263238"/>
<path d="M283.602 226.246C283.602 231.07 283.795 236.063 284.157 240.911C284.435 245.67 285.089 250.4 286.111 255.057C286.219 255.624 286.376 256.155 286.533 256.685L286.931 258.072C287 258.375 287.127 258.662 287.305 258.916C287.57 259.375 289.246 259.881 291.272 259.761C295.89 259.292 300.415 258.159 304.707 256.396L307.65 261.377C306.444 262.269 305.419 262.993 304.249 263.789C303.079 264.585 301.909 265.2 300.631 265.827C298.06 267.169 295.323 268.166 292.49 268.793C290.847 269.148 289.164 269.281 287.486 269.191C285.411 269.071 283.398 268.441 281.624 267.358C279.706 266.139 278.185 264.388 277.247 262.317L276.945 261.63L276.752 261.123L276.366 260.098C276.113 259.423 275.86 258.735 275.667 258.06C274.097 252.806 273.055 247.409 272.555 241.948C272.29 239.295 272.061 236.654 271.976 234C271.892 231.347 271.82 228.766 271.916 225.98L283.602 226.246Z" fill="#7F3E3B"/>
<path d="M278.188 213.089C288.053 221.736 286.63 236.69 286.63 236.69L267.732 239.91C267.732 239.91 263.029 224.473 265.706 219.107C268.528 213.462 272.628 208.228 278.188 213.089Z" fill="#E2857E"/>
<path opacity="0.3" d="M278.188 213.089C288.053 221.736 286.63 236.69 286.63 236.69L267.732 239.91C267.732 239.91 263.029 224.473 265.706 219.107C268.528 213.462 272.628 208.228 278.188 213.089Z" fill="white"/>
<path opacity="0.4" d="M272.906 226.921L265.814 231.83C266.647 236.22 267.768 239.91 267.768 239.91L274.232 238.813C274.198 234.814 273.754 230.829 272.906 226.921Z" fill="#E2857E"/>
<path d="M303.61 257.433L310.846 251.041L313.837 261.979C313.837 261.979 307.807 264.705 302.537 261.413L303.61 257.433Z" fill="#7F3E3B"/>
<path d="M320.422 250.607L321.121 259.145L313.885 261.98L310.895 251.041L320.422 250.607Z" fill="#7F3E3B"/>
<path d="M202.089 492.736L212.702 493.761L219.998 468.833L209.373 467.808L202.089 492.736Z" fill="#7F3E3B"/>
<path d="M134.493 450.731L141.85 458.618L160.024 441.107L152.656 433.22L134.493 450.731Z" fill="#7F3E3B"/>
<path d="M143.598 458.582L138.4 447.571C138.311 447.382 138.158 447.232 137.968 447.145C137.778 447.059 137.564 447.043 137.363 447.101L128.053 449.959C127.82 450.04 127.607 450.169 127.427 450.338C127.248 450.507 127.106 450.713 127.011 450.94C126.917 451.168 126.872 451.413 126.879 451.66C126.886 451.906 126.945 452.149 127.052 452.371C128.933 456.182 130.031 457.918 132.322 462.767C133.721 465.745 136.398 472.547 138.352 476.66C140.306 480.772 144.466 479.072 144.032 477.19C142.054 468.748 142.826 464.141 143.779 460.523C143.954 459.875 143.889 459.186 143.598 458.582Z" fill="#263238"/>
<path d="M213.824 490.529H200.956C200.725 490.531 200.501 490.609 200.318 490.75C200.135 490.892 200.003 491.089 199.943 491.312L197.145 501.479C197.077 501.719 197.067 501.972 197.114 502.217C197.161 502.463 197.265 502.693 197.418 502.891C197.57 503.089 197.766 503.249 197.991 503.358C198.216 503.466 198.463 503.521 198.713 503.517C203.247 503.517 205.394 503.517 211.05 503.517H228.344C233.048 503.517 234.024 498.766 232.083 498.331C223.363 496.402 218.334 493.749 215.645 491.204C215.146 490.755 214.495 490.513 213.824 490.529Z" fill="#263238"/>
<path opacity="0.2" d="M219.999 468.833L216.236 481.689H205.31L209.362 467.82L219.999 468.833Z" fill="black"/>
<path opacity="0.2" d="M152.655 433.22L160.023 441.107L150.653 450.128L143.284 442.241L152.655 433.22Z" fill="black"/>
<path d="M275.149 211.352C275.149 211.352 279.708 213.764 259.857 275.053L216.32 268.384C219.769 250.776 221.458 239.862 218.551 202.21C224.84 201.883 231.144 202.012 237.413 202.596C244.065 203.137 250.671 204.149 257.18 205.623C263.263 207.226 269.26 209.138 275.149 211.352Z" fill="#E2857E"/>
<path opacity="0.3" d="M275.149 211.352C275.149 211.352 279.708 213.764 259.857 275.053L216.32 268.384C219.769 250.776 221.458 239.862 218.551 202.21C224.84 201.883 231.144 202.012 237.413 202.596C244.065 203.137 250.671 204.149 257.18 205.623C263.263 207.226 269.26 209.138 275.149 211.352Z" fill="white"/>
<path d="M242.78 180.647C243.057 187.196 242.514 199.038 237.413 202.596C237.413 202.596 247.58 215.561 252.283 228.513C258.217 221.096 257.179 205.599 257.179 205.599C250.341 202.825 251.33 197.591 253.332 192.84L242.78 180.647Z" fill="#7F3E3B"/>
<path opacity="0.2" d="M247.073 185.628L253.32 192.864C252.825 193.966 252.421 195.108 252.114 196.277C249.461 195.469 245.759 192.418 245.904 189.535C246.061 188.174 246.457 186.851 247.073 185.628Z" fill="black"/>
<path d="M237.727 170.107C239.753 180.671 240.392 185.182 246.47 189.957C255.636 197.193 268.178 192.369 269.384 181.371C270.433 171.506 266.972 155.876 255.961 152.993C253.541 152.331 250.992 152.3 248.557 152.904C246.121 153.508 243.882 154.727 242.052 156.444C240.223 158.161 238.864 160.319 238.107 162.711C237.35 165.103 237.219 167.649 237.727 170.107Z" fill="#7F3E3B"/>
<path d="M235.447 159.807C231.286 166.645 262.22 158.384 264.21 155.526C260.713 150.846 254.647 149.821 248.532 151.172C242.418 152.523 237.232 156.876 235.447 159.807Z" fill="#263238"/>
<path d="M243.443 157.6C246.699 161.701 249.196 172.977 239.427 178.452C233.313 172.362 233.458 169.009 233.313 165.729C233.168 162.449 239.873 153.162 243.443 157.6Z" fill="#263238"/>
<path d="M236.291 178.862C237.142 180.757 238.706 182.24 240.645 182.987C243.226 183.952 244.757 181.696 244.263 179.14C243.792 176.836 241.851 173.556 239.198 173.688C238.609 173.725 238.038 173.909 237.539 174.222C237.039 174.536 236.626 174.97 236.337 175.485C236.048 175.999 235.892 176.578 235.884 177.168C235.876 177.758 236.016 178.34 236.291 178.862Z" fill="#7F3E3B"/>
<path d="M259.856 275.052C259.856 275.052 270.36 341.539 257.444 387.09C248.785 417.59 220.806 478.529 220.806 478.529L202.161 476.816C202.161 476.816 224.544 412.416 229.971 386.873C239.27 343.167 227.933 270.144 227.933 270.144L259.856 275.052Z" fill="#263238"/>
<path opacity="0.2" d="M241.911 287.161L231.552 301.271C233.219 318.907 233.847 336.625 233.433 354.335C248.158 331.722 244.01 299.8 241.911 287.161Z" fill="black"/>
<path d="M223.472 478.939L200.353 478.348L201.691 471.245L225.281 472.354L223.472 478.939Z" fill="#E2857E"/>
<path d="M250.329 273.762C250.329 273.762 234.47 340.092 215.934 378.322C200.956 409.16 155.055 449.935 155.055 449.935L145.407 438.562C145.407 438.562 177.246 394.869 188.401 374.367C215.741 324.101 199.436 285.677 216.344 268.383L250.329 273.762Z" fill="#263238"/>
<path d="M156.02 451.442L143.478 437.501L148.326 431.748L161.592 446.859L156.02 451.442Z" fill="#E2857E"/>
<path d="M216.067 265.73L213.51 269.348C213.305 269.626 213.618 270 214.125 270.072L259.772 277.055C260.17 277.055 260.52 276.97 260.58 276.729L261.569 272.894C261.641 272.629 261.328 272.351 260.906 272.279L216.826 265.537C216.694 265.501 216.554 265.5 216.421 265.534C216.288 265.568 216.166 265.635 216.067 265.73Z" fill="#E2857E"/>
<path d="M221.228 271.567L220.022 271.386C219.793 271.386 219.624 271.205 219.672 271.061L220.999 266.08C220.999 265.935 221.264 265.839 221.493 265.875L222.699 266.056C222.941 266.056 223.097 266.249 223.061 266.393L221.723 271.35C221.686 271.519 221.469 271.603 221.228 271.567Z" fill="#263238"/>
<path d="M256.395 276.946L255.189 276.765C254.948 276.765 254.791 276.584 254.827 276.439L256.154 271.459C256.154 271.314 256.419 271.23 256.661 271.266L257.867 271.435C258.108 271.435 258.265 271.627 258.228 271.772L256.902 276.753C256.878 276.898 256.624 276.982 256.395 276.946Z" fill="#263238"/>
<path d="M238.788 274.257L237.582 274.076C237.341 274.076 237.184 273.895 237.22 273.75L238.559 268.769C238.559 268.625 238.812 268.528 239.053 268.564L240.259 268.745C240.488 268.745 240.657 268.938 240.609 269.083L239.282 274.064C239.27 274.208 239.041 274.293 238.788 274.257Z" fill="#263238"/>
<path d="M255.334 170.902C255.442 171.771 255.997 172.41 256.54 172.337C257.082 172.265 257.48 171.505 257.36 170.637C257.239 169.769 256.697 169.13 256.154 169.202C255.611 169.274 255.225 170.046 255.334 170.902Z" fill="#263238"/>
<path d="M265.138 169.636C265.247 170.505 265.802 171.144 266.344 171.071C266.887 170.999 267.285 170.239 267.165 169.371C267.044 168.503 266.501 167.863 265.959 167.936C265.416 168.008 265.03 168.768 265.138 169.636Z" fill="#263238"/>
<path d="M265.718 168.008L267.72 167.14C267.72 167.14 266.863 168.912 265.718 168.008Z" fill="#263238"/>
<path d="M261.702 171.554C262.734 173.431 264.016 175.159 265.513 176.691C265.113 177.065 264.635 177.346 264.114 177.515C263.593 177.684 263.042 177.736 262.498 177.668L261.702 171.554Z" fill="#630F0F"/>
<path d="M258.228 181.491C256.425 181.392 254.727 180.612 253.477 179.308C253.452 179.288 253.433 179.263 253.419 179.234C253.406 179.206 253.399 179.174 253.398 179.143C253.398 179.111 253.405 179.08 253.418 179.051C253.431 179.022 253.451 178.997 253.475 178.976C253.499 178.956 253.527 178.941 253.558 178.932C253.588 178.924 253.62 178.922 253.651 178.927C253.683 178.933 253.712 178.945 253.738 178.962C253.764 178.98 253.786 179.004 253.802 179.031C254.58 179.813 255.532 180.399 256.58 180.743C257.628 181.087 258.743 181.178 259.832 181.009C259.86 181.004 259.889 181.004 259.916 181.011C259.944 181.017 259.97 181.029 259.993 181.046C260.015 181.063 260.034 181.085 260.048 181.11C260.062 181.134 260.071 181.162 260.074 181.19C260.079 181.218 260.078 181.246 260.072 181.274C260.065 181.301 260.053 181.327 260.036 181.35C260.019 181.373 259.998 181.392 259.973 181.405C259.948 181.419 259.921 181.428 259.893 181.431C259.341 181.501 258.784 181.521 258.228 181.491Z" fill="#263238"/>
<path d="M250.425 166.488C250.347 166.48 250.271 166.451 250.208 166.404C250.162 166.372 250.122 166.332 250.092 166.285C250.061 166.239 250.04 166.186 250.03 166.131C250.02 166.076 250.021 166.02 250.033 165.965C250.045 165.91 250.068 165.859 250.1 165.813C250.541 165.145 251.136 164.593 251.835 164.203C252.533 163.812 253.316 163.595 254.116 163.57C254.173 163.571 254.229 163.584 254.281 163.607C254.333 163.631 254.38 163.664 254.419 163.705C254.458 163.747 254.489 163.796 254.509 163.849C254.53 163.902 254.539 163.959 254.538 164.016C254.531 164.129 254.481 164.235 254.398 164.312C254.315 164.388 254.205 164.429 254.091 164.426C253.441 164.464 252.809 164.654 252.245 164.981C251.682 165.307 251.203 165.762 250.847 166.307C250.801 166.374 250.737 166.426 250.662 166.458C250.588 166.49 250.505 166.501 250.425 166.488Z" fill="#263238"/>
<path d="M268.781 163.57C268.713 163.587 268.643 163.587 268.576 163.57C268.032 163.196 267.408 162.956 266.755 162.868C266.101 162.78 265.436 162.847 264.813 163.063C264.709 163.108 264.591 163.111 264.485 163.07C264.379 163.03 264.293 162.949 264.246 162.846C264.201 162.744 264.199 162.628 264.24 162.524C264.281 162.42 264.361 162.336 264.463 162.291C265.213 162.008 266.021 161.911 266.817 162.007C267.612 162.104 268.373 162.392 269.034 162.846C269.129 162.908 269.195 163.004 269.22 163.115C269.245 163.225 269.226 163.341 269.166 163.437C269.118 163.489 269.057 163.528 268.99 163.552C268.923 163.575 268.851 163.581 268.781 163.57Z" fill="#263238"/>
<path d="M223.749 219.01C221.94 221.627 220.022 224.304 218.225 226.994C216.428 229.683 214.607 232.336 212.81 235.05C211.014 237.763 209.361 240.452 207.83 243.166C207.058 244.517 206.322 245.867 205.683 247.182L205.225 248.159L205.104 248.4V248.521C205.14 248.415 205.164 248.306 205.176 248.195C205.195 248.051 205.195 247.905 205.176 247.761C205.219 247.146 205.076 246.533 204.766 246C204.513 245.614 204.405 245.554 204.393 245.554C204.635 245.79 204.916 245.982 205.225 246.121C205.789 246.403 206.368 246.653 206.961 246.868C208.353 247.348 209.77 247.75 211.206 248.074C214.197 248.846 217.357 249.401 220.541 249.932C226.909 250.945 233.457 251.801 239.933 252.549L239.837 258.337C233.109 258.792 226.359 258.848 219.624 258.506C216.176 258.343 212.739 258.005 209.325 257.493C207.51 257.196 205.714 256.793 203.946 256.287C202.956 256.024 201.985 255.694 201.04 255.298C199.813 254.815 198.666 254.148 197.639 253.32C196.839 252.672 196.165 251.884 195.649 250.993C194.934 249.741 194.602 248.307 194.696 246.868C194.72 246.512 194.768 246.157 194.841 245.807C194.913 245.506 194.998 245.192 195.094 244.891L195.191 244.613L195.263 244.444L195.384 244.119L195.878 242.804C196.578 241.104 197.301 239.476 198.085 237.908C199.653 234.784 201.293 231.769 203.054 228.863C204.815 225.956 206.612 223.098 208.457 220.288C210.302 217.478 212.232 214.741 214.306 212.003L223.749 219.01Z" fill="#7F3E3B"/>
<path d="M236.665 253.73L245.493 249.763L245.192 259.302C245.192 259.302 239.077 261.075 235.725 258.096L236.665 253.73Z" fill="#7F3E3B"/>
<path d="M250.655 250.788L248.821 259.145L245.191 259.302L245.493 249.763L250.655 250.788Z" fill="#7F3E3B"/>
<path opacity="0.4" d="M224.774 222.411L219.95 226.403C220.059 230.021 220.083 233.253 220.047 236.243C222.965 234.266 225.22 226.282 224.774 222.411Z" fill="#E2857E"/>
<path d="M218.551 202.21C213.124 202.801 204.598 217.707 204.598 217.707L219.685 233.204C219.685 233.204 228.85 219.794 228.742 212.702C228.645 206.793 225.522 201.402 218.551 202.21Z" fill="#E2857E"/>
<path opacity="0.3" d="M218.551 202.21C213.124 202.801 204.598 217.707 204.598 217.707L219.685 233.204C219.685 233.204 228.85 219.794 228.742 212.702C228.645 206.793 225.522 201.402 218.551 202.21Z" fill="white"/>
<path d="M145.298 464.431C145.156 464.429 145.016 464.396 144.888 464.334C143.682 463.816 142.947 461.392 142.645 459.981C142.634 459.94 142.636 459.897 142.651 459.858C142.666 459.819 142.694 459.786 142.729 459.764C142.763 459.741 142.803 459.729 142.844 459.729C142.885 459.729 142.925 459.741 142.959 459.764C143.345 459.993 146.649 462.043 146.673 463.382C146.676 463.53 146.64 463.676 146.568 463.805C146.496 463.934 146.391 464.042 146.263 464.117C145.986 464.327 145.646 464.438 145.298 464.431ZM143.176 460.403C143.646 462.344 144.382 463.647 145.045 463.936C145.206 464 145.381 464.02 145.553 463.995C145.724 463.969 145.886 463.899 146.022 463.792C146.09 463.755 146.147 463.701 146.187 463.636C146.227 463.57 146.249 463.495 146.251 463.418C146.227 462.586 144.309 461.138 143.176 460.403Z" fill="#E2857E"/>
<path d="M146.046 461.126C144.878 461.043 143.744 460.697 142.73 460.113C142.698 460.093 142.674 460.063 142.659 460.029C142.644 459.995 142.639 459.957 142.645 459.92C142.646 459.883 142.657 459.847 142.679 459.817C142.7 459.787 142.731 459.764 142.766 459.751C142.886 459.691 145.696 458.377 147.119 458.992C147.296 459.062 147.455 459.171 147.585 459.311C147.714 459.451 147.811 459.618 147.867 459.8C147.951 459.975 147.971 460.174 147.925 460.363C147.879 460.552 147.769 460.72 147.614 460.837C147.139 461.108 146.586 461.21 146.046 461.126ZM143.321 459.92C144.454 460.499 146.685 460.945 147.361 460.451C147.469 460.366 147.578 460.234 147.469 459.884C147.43 459.76 147.362 459.647 147.273 459.553C147.183 459.459 147.073 459.386 146.951 459.341C145.986 458.967 144.117 459.643 143.321 459.968V459.92Z" fill="#E2857E"/>
<path d="M219.492 492.603C218.31 492.575 217.134 492.425 215.982 492.157C215.939 492.147 215.9 492.125 215.87 492.093C215.84 492.06 215.82 492.019 215.814 491.976C215.807 491.931 215.816 491.886 215.837 491.847C215.859 491.808 215.893 491.777 215.934 491.759C216.465 491.505 221.132 489.347 222.302 490.155C222.409 490.223 222.496 490.321 222.551 490.436C222.607 490.551 222.629 490.679 222.615 490.806C222.607 491.042 222.545 491.273 222.434 491.482C222.323 491.691 222.167 491.872 221.976 492.012C221.23 492.463 220.361 492.67 219.492 492.603ZM216.718 491.879C218.105 492.132 220.662 492.47 221.723 491.674C221.863 491.571 221.977 491.436 222.056 491.281C222.136 491.127 222.179 490.956 222.181 490.782C222.181 490.613 222.181 490.541 222.073 490.504C221.446 490.058 218.684 491.023 216.754 491.879H216.718Z" fill="#E2857E"/>
<path d="M216.066 492.169C216.019 492.179 215.969 492.179 215.922 492.169C215.903 492.136 215.893 492.098 215.893 492.06C215.893 492.022 215.903 491.985 215.922 491.952C215.922 491.759 217.019 487.128 219.54 487.453C220.179 487.526 220.348 487.839 220.384 488.093C220.541 489.299 217.598 491.626 216.187 492.193L216.066 492.169ZM219.262 487.815C217.646 487.815 216.706 490.493 216.392 491.566C217.912 490.77 220.01 488.852 219.914 488.093C219.914 488.093 219.914 487.876 219.443 487.827L219.262 487.815Z" fill="#E2857E"/>
<path d="M255.913 169.275L257.915 168.406C257.915 168.406 257.059 170.179 255.913 169.275Z" fill="#263238"/>
<path d="M325.825 150.822L456.712 169.636C457.339 169.726 457.943 169.939 458.488 170.262C459.032 170.585 459.508 171.013 459.888 171.52C460.268 172.028 460.544 172.605 460.7 173.219C460.857 173.833 460.891 174.472 460.8 175.099L413.658 502.902C413.568 503.529 413.355 504.132 413.032 504.677C412.708 505.222 412.281 505.698 411.773 506.078C411.266 506.457 410.689 506.733 410.075 506.89C409.461 507.046 408.822 507.081 408.195 506.99L277.38 488.237C276.753 488.147 276.149 487.934 275.604 487.61C275.059 487.287 274.584 486.859 274.204 486.352C273.824 485.845 273.548 485.268 273.392 484.654C273.235 484.04 273.201 483.401 273.292 482.774L320.41 154.91C320.592 153.653 321.263 152.519 322.277 151.753C323.291 150.988 324.566 150.653 325.825 150.822Z" fill="#E2857E"/>
<path opacity="0.2" d="M325.825 150.822L456.712 169.636C457.339 169.726 457.943 169.939 458.488 170.262C459.032 170.585 459.508 171.013 459.888 171.52C460.268 172.028 460.544 172.605 460.7 173.219C460.857 173.833 460.891 174.472 460.8 175.099L413.658 502.902C413.568 503.529 413.355 504.132 413.032 504.677C412.708 505.222 412.281 505.698 411.773 506.078C411.266 506.457 410.689 506.733 410.075 506.89C409.461 507.046 408.822 507.081 408.195 506.99L277.38 488.237C276.753 488.147 276.149 487.934 275.604 487.61C275.059 487.287 274.584 486.859 274.204 486.352C273.824 485.845 273.548 485.268 273.392 484.654C273.235 484.04 273.201 483.401 273.292 482.774L320.41 154.91C320.592 153.653 321.263 152.519 322.277 151.753C323.291 150.988 324.566 150.653 325.825 150.822Z" fill="black"/>
<path opacity="0.3" d="M456.096 169.551L456.712 169.636C457.339 169.726 457.942 169.939 458.487 170.262C459.032 170.585 459.508 171.013 459.887 171.52C460.267 172.028 460.543 172.605 460.7 173.219C460.856 173.833 460.89 174.472 460.8 175.099L413.657 502.902C413.567 503.529 413.354 504.132 413.031 504.677C412.708 505.222 412.28 505.698 411.773 506.078C411.265 506.457 410.688 506.733 410.074 506.89C409.46 507.046 408.821 507.081 408.194 506.99L407.579 506.906C406.952 506.816 406.349 506.603 405.804 506.279C405.259 505.956 404.783 505.528 404.403 505.021C404.023 504.514 403.747 503.937 403.591 503.323C403.434 502.709 403.4 502.07 403.491 501.443L450.633 173.664C450.721 173.034 450.931 172.428 451.253 171.881C451.576 171.333 452.003 170.854 452.51 170.472C453.018 170.09 453.596 169.812 454.212 169.654C454.827 169.496 455.468 169.461 456.096 169.551Z" fill="black"/>
<path d="M455.831 175.733L330.622 158.026L284.904 481.321L410.112 499.028L455.831 175.733Z" fill="white"/>
<path opacity="0.2" d="M330.19 158.686L451.996 176.185L405.807 497.559L283.735 481.93L330.19 158.686Z" fill="#E2857E"/>
<path d="M330.19 158.686L449.548 171.879L403.093 495.123L283.735 481.93L330.19 158.686Z" fill="white"/>
<path opacity="0.2" d="M330.19 158.686L446.244 171.409L398.993 493.037L283.735 481.93L330.19 158.686Z" fill="#E2857E"/>
<path d="M330.19 158.686L445.074 169.696L397.437 491.324L283.735 481.93L330.19 158.686Z" fill="white"/>
<path opacity="0.2" d="M330.19 158.686L440.407 169.25L393.638 489.286L283.735 481.93L330.19 158.686Z" fill="#E2857E"/>
<path d="M330.19 158.686L436.837 167.924L389.538 487.996L283.735 481.93L330.19 158.686Z" fill="white"/>
<path opacity="0.2" d="M330.19 158.686L429.179 167.26L381.868 487.55L283.735 481.93L330.19 158.686Z" fill="#E2857E"/>
<path d="M354.946 147.073L354.859 148.349L362.776 148.888L362.863 147.613L354.946 147.073Z" fill="#E2857E"/>
<path d="M370.433 148.13L370.346 149.405L393.736 151L393.823 149.724L370.433 148.13Z" fill="#E2857E"/>
<path d="M420.254 156.008L315.694 148.893C313.972 148.781 312.271 149.322 310.93 150.408C309.589 151.495 308.706 153.046 308.458 154.754L261.907 478.553C261.773 479.487 261.834 480.438 262.085 481.347C262.336 482.256 262.771 483.104 263.364 483.837C263.957 484.57 264.695 485.173 265.531 485.609C266.368 486.044 267.285 486.303 268.226 486.368L372.786 493.495C374.51 493.607 376.213 493.064 377.554 491.975C378.896 490.887 379.777 489.332 380.022 487.622L426.562 163.835C426.695 162.902 426.635 161.951 426.385 161.042C426.135 160.133 425.701 159.285 425.109 158.551C424.518 157.817 423.781 157.212 422.946 156.775C422.111 156.338 421.195 156.077 420.254 156.008Z" fill="#E2857E"/>
<path opacity="0.2" d="M365.345 483.497H365.056L272.085 477.166C271.495 477.124 270.919 476.961 270.395 476.687C269.87 476.413 269.407 476.034 269.035 475.574C268.663 475.113 268.389 474.581 268.232 474.011C268.074 473.44 268.035 472.844 268.117 472.258L313.005 159.964C313.171 158.901 313.731 157.939 314.573 157.269C315.415 156.599 316.478 156.269 317.551 156.346L410.522 162.677C411.114 162.716 411.691 162.877 412.217 163.15C412.744 163.422 413.208 163.801 413.581 164.263C413.953 164.724 414.227 165.257 414.383 165.829C414.54 166.401 414.576 166.999 414.49 167.586L369.614 479.795C369.464 480.821 368.951 481.759 368.167 482.439C367.384 483.118 366.382 483.494 365.345 483.497ZM317.262 157.54C316.536 157.543 315.835 157.807 315.286 158.283C314.738 158.758 314.378 159.414 314.271 160.133L269.384 472.487C269.328 472.899 269.358 473.318 269.47 473.719C269.583 474.119 269.776 474.492 270.038 474.815C270.3 475.138 270.625 475.404 270.994 475.597C271.363 475.79 271.767 475.905 272.182 475.936L365.14 482.267C365.902 482.312 366.653 482.071 367.246 481.592C367.839 481.112 368.232 480.428 368.348 479.674L413.223 167.393C413.284 166.982 413.259 166.562 413.149 166.162C413.039 165.761 412.846 165.387 412.584 165.065C412.323 164.741 411.997 164.473 411.628 164.28C411.258 164.087 410.853 163.973 410.437 163.944L317.467 157.612L317.262 157.54Z" fill="white"/>
</svg>
