<svg width="21" height="21" viewBox="0 0 21 21" fill="none" xmlns="http://www.w3.org/2000/svg">
<path d="M18.375 1.75L17.5 2.625" stroke="#2C2C2C" stroke-width="1.5" stroke-linecap="round" stroke-linejoin="round"/>
<path d="M2.625 1.75L3.5 2.625" stroke="#2C2C2C" stroke-width="1.5" stroke-linecap="round" stroke-linejoin="round"/>
<path d="M18.375 14L17.5 13.125" stroke="#2C2C2C" stroke-width="1.5" stroke-linecap="round" stroke-linejoin="round"/>
<path d="M2.625 14L3.5 13.125" stroke="#2C2C2C" stroke-width="1.5" stroke-linecap="round" stroke-linejoin="round"/>
<path d="M7.875 15.75H13.125" stroke="#2C2C2C" stroke-width="1.5" stroke-linecap="round" stroke-linejoin="round"/>
<path d="M8.75 18.375H12.25" stroke="#2C2C2C" stroke-width="1.5" stroke-linecap="round" stroke-linejoin="round"/>
<path d="M10.5007 2.625C7.00059 2.625 5.20873 4.3315 5.25072 7C5.27119 8.30103 5.68809 9.1875 6.56322 10.0625C7.43835 10.9375 7.87585 11.375 7.87572 13.125H13.1257C13.1259 11.3751 13.5633 10.9375 14.4381 10.0626L14.4382 10.0625C15.3131 9.1875 15.7302 8.30103 15.7507 7C15.7927 4.3315 14.0009 2.625 10.5007 2.625Z" stroke="#2C2C2C" stroke-width="1.5" stroke-linecap="round" stroke-linejoin="round"/>
</svg>
